<svg width="287" height="57" viewBox="0 0 287 57" fill="none" xmlns="http://www.w3.org/2000/svg">
<path d="M12.3925 28.5C12.3925 18.9687 18.7463 10.925 27.4462 8.35971C25.5156 7.78955 23.513 7.50002 21.4999 7.5C9.90202 7.5 0.5 16.9021 0.5 28.5C0.5 40.0986 9.9021 49.5 21.5 49.5C23.513 49.5001 25.5156 49.2108 27.4463 48.641C18.7457 46.0763 12.3925 38.032 12.3925 28.5Z" fill="url(#paint0_linear_281_1250)"/>
<path d="M28.0675 20.3332C33.1942 20.3332 37.5215 23.7509 38.9009 28.4313C39.2072 27.3927 39.3628 26.3155 39.3629 25.2327C39.3629 18.9951 34.3058 13.9387 28.0675 13.938C21.8292 13.938 16.7715 18.9944 16.7715 25.232C16.7715 26.3431 16.9355 27.4167 17.2348 28.4306C18.6149 23.7509 22.9416 20.3338 28.0675 20.3332Z" fill="url(#paint1_linear_281_1250)"/>
<path d="M32.0178 32.1433C32.0178 35.9561 29.4749 39.1743 25.9941 40.2001C26.7667 40.4283 27.5681 40.5441 28.3737 40.5439C33.0121 40.5439 36.7743 36.7829 36.7743 32.1427C36.7743 27.5024 33.014 23.7407 28.3737 23.7407C27.5482 23.7407 26.7482 23.8614 25.9941 24.0846C29.4749 25.111 32.0178 28.3293 32.0178 32.1433Z" fill="url(#paint2_linear_281_1250)"/>
<path d="M61.4173 37.516H73.3493V42H55.2613V37.896L67.1173 19.96H55.2613V15.476H73.3493V19.58L61.4173 37.516ZM94.1419 36.946H83.5779L81.8299 42H76.2439L85.7819 15.438H91.9759L101.514 42H95.8899L94.1419 36.946ZM92.6979 32.69L88.8599 21.594L85.0219 32.69H92.6979ZM121.457 15.476V19.77H110.399V26.572H118.873V30.79H110.399V42H105.079V15.476H121.457ZM141.607 15.476V19.77H130.549V26.572H139.023V30.79H130.549V42H125.229V15.476H141.607ZM159.06 42L153.208 31.664H150.7V42H145.38V15.476H155.336C157.388 15.476 159.136 15.8433 160.58 16.578C162.024 17.2873 163.1 18.2627 163.81 19.504C164.544 20.72 164.912 22.088 164.912 23.608C164.912 25.356 164.405 26.9393 163.392 28.358C162.378 29.7513 160.871 30.714 158.87 31.246L165.216 42H159.06ZM150.7 27.674H155.146C156.59 27.674 157.666 27.332 158.376 26.648C159.085 25.9387 159.44 24.9633 159.44 23.722C159.44 22.506 159.085 21.5687 158.376 20.91C157.666 20.226 156.59 19.884 155.146 19.884H150.7V27.674ZM175.044 19.77V26.42H183.974V30.638H175.044V37.668H185.114V42H169.724V15.438H185.114V19.77H175.044ZM207.998 15.476V19.77H200.93V42H195.61V19.77H188.542V15.476H207.998ZM217.2 19.77V26.42H226.13V30.638H217.2V37.668H227.27V42H211.88V15.438H227.27V19.77H217.2ZM230.812 28.7C230.812 26.0907 231.395 23.76 232.56 21.708C233.751 19.6307 235.36 18.022 237.386 16.882C239.438 15.7167 241.731 15.134 244.264 15.134C247.228 15.134 249.825 15.894 252.054 17.414C254.284 18.934 255.842 21.0367 256.728 23.722H250.61C250.002 22.4553 249.141 21.5053 248.026 20.872C246.937 20.2387 245.67 19.922 244.226 19.922C242.681 19.922 241.3 20.2893 240.084 21.024C238.894 21.7333 237.956 22.7467 237.272 24.064C236.614 25.3813 236.284 26.9267 236.284 28.7C236.284 30.448 236.614 31.9933 237.272 33.336C237.956 34.6533 238.894 35.6793 240.084 36.414C241.3 37.1233 242.681 37.478 244.226 37.478C245.67 37.478 246.937 37.1613 248.026 36.528C249.141 35.8693 250.002 34.9067 250.61 33.64H256.728C255.842 36.3507 254.284 38.466 252.054 39.986C249.85 41.4807 247.254 42.228 244.264 42.228C241.731 42.228 239.438 41.658 237.386 40.518C235.36 39.3527 233.751 37.744 232.56 35.692C231.395 33.64 230.812 31.3093 230.812 28.7ZM283.274 15.476V42H277.954V30.714H266.592V42H261.272V15.476H266.592V26.382H277.954V15.476H283.274Z" fill="white"/>
<defs>
<linearGradient id="paint0_linear_281_1250" x1="13.9731" y1="7.5" x2="13.9731" y2="49.5" gradientUnits="userSpaceOnUse">
<stop stop-color="#FFB169"/>
<stop offset="0.47" stop-color="#FF7A00"/>
<stop offset="1" stop-color="#D96A04"/>
</linearGradient>
<linearGradient id="paint1_linear_281_1250" x1="28.0672" y1="13.938" x2="28.0672" y2="28.4313" gradientUnits="userSpaceOnUse">
<stop stop-color="#01B3FF"/>
<stop offset="1" stop-color="#006DAA"/>
</linearGradient>
<linearGradient id="paint2_linear_281_1250" x1="31.3842" y1="23.7407" x2="31.3842" y2="40.5439" gradientUnits="userSpaceOnUse">
<stop stop-color="#14EA5D"/>
<stop offset="0.475" stop-color="#00FF57"/>
<stop offset="1" stop-color="#00B712"/>
</linearGradient>
</defs>
</svg>
