<svg width="1440" height="653" viewBox="0 0 1440 653" fill="none" xmlns="http://www.w3.org/2000/svg">
<g clip-path="url(#clip0_1388_102596)">
<rect width="1440" height="653" fill="white"/>
<path d="M32 315.568C35.604 312.189 35.604 315.568 32 315.568C35.604 312.189 39.208 312.189 39.208 308.811C39.208 308.811 39.208 308.811 42.8121 305.432C42.8121 305.432 42.8121 305.432 46.4161 302.054L50.0201 298.676C50.0201 298.676 50.0201 298.676 50.0201 302.054V305.432V308.811H53.6241C53.6241 308.811 53.6241 308.811 53.6241 305.432C53.6241 305.432 57.2281 305.432 57.2281 302.054L60.8322 298.676C60.8322 298.676 60.8322 298.676 64.4362 295.297L68.0403 291.919C71.6443 288.541 75.2483 285.162 78.8523 285.162C78.8523 285.162 82.4564 285.162 82.4564 281.784L78.8523 285.162C75.2483 285.162 75.2483 288.541 71.6442 291.919C71.6442 291.919 68.0403 291.919 68.0403 295.297C68.0403 295.297 68.0403 295.297 68.0403 298.676C68.0403 298.676 68.0402 298.676 71.6442 298.676C71.6442 298.676 71.6442 298.676 71.6442 302.054C71.6442 302.054 71.6443 302.054 68.0403 302.054C68.0403 302.054 68.0402 302.054 71.6442 302.054C71.6442 302.054 71.6443 302.054 75.2483 302.054V298.676C75.2483 298.676 75.2483 298.676 78.8523 298.676C78.8523 298.676 78.8523 298.676 78.8523 295.297C78.8523 295.297 78.8523 295.297 78.8523 298.676C78.8523 298.676 78.8523 298.676 75.2483 298.676C75.2483 298.676 75.2483 298.676 71.6442 302.054L68.0403 305.432C68.0403 305.432 68.0403 305.432 64.4362 308.811C64.4362 308.811 60.8322 308.811 60.8322 312.189C60.8322 312.189 57.2281 312.189 57.2281 315.568C57.2281 315.568 60.8322 315.568 60.8322 312.189C60.8322 312.189 60.8322 312.189 64.4362 312.189L60.8322 315.568C60.8322 315.568 60.8322 315.568 60.8322 318.946C60.8322 318.946 60.8322 318.946 57.2281 318.946V315.568C57.2281 315.568 57.2281 318.946 53.6241 318.946C53.6241 318.946 53.6241 318.946 57.2281 318.946C57.2281 318.946 57.2281 318.946 57.2281 322.324C57.2281 322.324 53.6241 322.324 53.6241 325.703C53.6241 325.703 57.2281 325.703 57.2281 322.324C57.2281 322.324 57.2282 322.324 60.8322 318.946H64.4362C68.0403 318.946 68.0403 315.568 68.0403 315.568C68.0403 315.568 71.6442 315.568 71.6442 312.189C71.6442 312.189 71.6442 312.189 71.6442 308.811C71.6442 308.811 75.2483 308.811 75.2483 305.432C75.2483 305.432 75.2483 305.432 78.8523 302.054C82.4563 302.054 82.4564 298.676 86.0604 295.297H89.6644L93.2684 291.919L96.8725 288.541L100.476 285.162C100.476 285.162 100.476 285.162 100.476 288.541C100.476 288.541 96.8725 288.541 96.8725 291.919C96.8725 291.919 93.2684 291.919 93.2684 295.297C93.2684 295.297 89.6644 295.297 89.6644 298.676C89.6644 298.676 89.6644 302.054 86.0604 302.054L82.4564 305.432C82.4564 305.432 82.4563 305.432 78.8523 305.432L75.2483 308.811C75.2483 308.811 75.2483 308.811 75.2483 312.189C75.2483 312.189 75.2483 312.189 71.6442 315.568C60.8322 335.838 60.8322 335.838 60.8322 339.216L57.2281 342.595L53.6241 345.973H57.2281C57.2281 345.973 57.2281 345.973 57.2281 349.351C57.2281 349.351 57.2281 349.351 57.2281 352.73C57.2281 352.73 57.2281 352.73 53.6241 356.108V359.486C53.6241 359.486 57.2281 359.486 57.2281 356.108C60.8322 352.73 60.8322 352.73 64.4362 349.351C68.0403 349.351 68.0403 345.973 68.0403 342.595C71.6443 342.595 71.6442 342.595 71.6442 339.216C71.6442 339.216 71.6443 339.216 75.2483 339.216L78.8523 335.838V332.459L82.4564 329.081C82.4564 325.703 86.0604 325.703 86.0604 325.703H89.6644H93.2684H96.8725H100.476C100.476 325.703 100.477 325.703 104.081 322.324V325.703L100.476 329.081H96.8725C96.8725 329.081 96.8725 329.081 96.8725 332.459C96.8725 332.459 96.8725 332.459 96.8725 335.838C96.8725 335.838 96.8724 335.838 93.2684 339.216C89.6644 342.595 89.6644 342.595 89.6644 345.973C86.0603 349.351 86.0604 349.351 82.4564 352.73C82.4564 356.108 78.8523 356.108 78.8523 356.108C82.4563 356.108 82.4564 352.73 86.0604 352.73C89.6644 352.73 89.6644 349.351 93.2684 345.973C93.2684 345.973 96.8725 345.973 96.8725 342.595H100.476L104.081 339.216H107.685C107.685 339.216 107.685 339.216 111.289 339.216C111.289 339.216 114.893 339.216 114.893 335.838C118.497 335.838 122.101 332.459 125.705 332.459C129.309 332.459 129.309 332.459 132.913 329.081C136.517 329.081 140.121 325.703 140.121 325.703C140.121 325.703 140.121 325.703 143.725 325.703C143.725 325.703 143.725 325.703 147.329 325.703C150.933 325.703 154.537 325.703 158.141 322.324C161.745 322.324 161.745 322.324 165.349 318.946C165.349 318.946 165.349 318.946 165.349 322.324C161.745 322.324 161.745 325.703 161.745 325.703C161.745 325.703 158.141 325.703 158.141 329.081C154.537 329.081 154.537 332.459 150.933 335.838C154.537 335.838 154.537 332.459 158.141 332.459C158.141 332.459 161.745 332.459 161.745 329.081C165.349 329.081 165.349 329.081 165.349 325.703C165.349 325.703 165.349 325.703 168.953 325.703V329.081C168.953 329.081 168.953 329.081 172.557 329.081C172.557 329.081 172.557 329.081 176.161 329.081C176.161 329.081 176.161 329.081 179.765 329.081C179.765 329.081 179.765 329.081 183.369 329.081H186.973C186.973 329.081 186.973 329.081 190.577 329.081C190.577 329.081 190.577 329.081 194.181 329.081C197.785 329.081 197.785 329.081 197.785 325.703C197.785 325.703 201.389 325.703 201.389 322.324V325.703C201.389 325.703 201.389 325.703 201.389 329.081C201.389 329.081 201.389 329.081 201.389 325.703V329.081L197.785 332.459H201.389V335.838C201.389 335.838 197.785 335.838 197.785 339.216L194.181 342.595C197.785 342.595 201.389 339.216 201.389 339.216H204.993C204.993 339.216 201.389 339.216 201.389 342.595C197.785 342.595 197.785 345.973 194.181 345.973H197.785C197.785 349.351 194.181 349.351 194.181 349.351C194.181 349.351 194.181 349.351 190.577 349.351C186.973 349.351 186.973 349.351 183.369 352.73C183.369 352.73 179.765 352.73 179.765 356.108H176.161C172.557 356.108 172.557 359.486 168.953 359.486H172.557C172.557 359.486 176.161 359.486 176.161 356.108C176.161 359.486 176.161 356.108 179.765 356.108L183.369 352.73H186.973H190.577H194.181H197.785V356.108V359.486C197.785 359.486 201.389 359.486 201.389 356.108C204.993 352.73 208.597 349.351 215.805 349.351H219.409C219.409 349.351 223.013 349.351 223.013 345.973H226.617C230.221 345.973 230.221 345.973 230.221 342.595H233.825C233.825 345.973 233.825 342.595 237.429 342.595C237.429 342.595 237.429 342.595 237.429 345.973C237.429 345.973 237.429 349.351 233.825 349.351H237.429C241.034 345.973 241.034 345.973 244.638 342.595C248.242 339.216 251.846 339.216 255.45 339.216C259.054 339.216 259.054 335.838 262.658 335.838C266.262 335.838 269.866 335.838 273.47 332.459C277.074 332.459 277.074 332.459 280.678 329.081C280.678 329.081 280.678 329.081 284.282 329.081C284.282 329.081 287.886 329.081 291.49 329.081C291.49 329.081 291.49 329.081 295.094 329.081H298.698C298.698 329.081 298.698 329.081 298.698 332.459C298.698 335.838 295.094 335.838 295.094 335.838C295.094 335.838 295.094 335.838 291.49 335.838H287.886C287.886 335.838 287.886 335.838 284.282 335.838H280.678C277.074 335.838 269.866 339.216 266.262 339.216C277.074 332.459 273.47 335.838 269.866 335.838C269.866 335.838 266.262 335.838 266.262 339.216H269.866C269.866 339.216 269.866 339.216 273.47 339.216H269.866C269.866 339.216 273.47 339.216 273.47 335.838H277.074C277.074 335.838 277.074 335.838 277.074 339.216C277.074 339.216 273.47 339.216 273.47 342.595C269.866 345.973 266.262 345.973 262.658 349.351C266.262 349.351 269.866 349.351 269.866 345.973C269.866 345.973 269.866 345.973 273.47 345.973H277.074C280.678 345.973 280.678 342.595 284.282 345.973C284.282 345.973 284.282 345.973 284.282 349.351H280.678C280.678 349.351 277.074 349.351 277.074 352.73C269.866 356.108 266.262 356.108 262.658 359.486H266.262C266.262 359.486 269.866 359.486 269.866 356.108C273.47 352.73 277.074 352.73 280.678 352.73C280.678 352.73 280.678 352.73 280.678 356.108C280.678 356.108 280.678 356.108 284.282 356.108C284.282 356.108 280.678 356.108 280.678 359.486L277.074 362.865C280.678 362.865 280.678 362.865 284.282 359.486C284.282 356.108 287.886 356.108 291.49 356.108C291.49 359.486 295.094 359.486 295.094 359.486C295.094 359.486 295.094 359.486 298.698 359.486C298.698 359.486 298.698 359.486 302.302 359.486C302.302 359.486 302.302 362.865 305.906 359.486C305.906 359.486 305.906 362.865 302.302 362.865C302.302 362.865 302.302 362.865 302.302 366.243C302.302 366.243 302.302 366.243 305.906 366.243V369.622C295.094 366.243 295.094 369.622 291.49 369.622C291.49 369.622 291.49 369.622 291.49 373H295.094C295.094 369.622 298.698 369.622 302.302 369.622L305.906 366.243L309.51 362.865C313.114 359.486 316.718 359.486 320.322 356.108C323.926 352.73 327.53 352.73 331.134 352.73H334.738C334.738 352.73 338.342 352.73 338.342 349.351C341.946 349.351 341.946 349.351 345.55 349.351C349.154 349.351 349.154 349.351 349.154 349.351C349.154 349.351 352.758 349.351 352.758 345.973H356.362C356.362 349.351 352.758 345.973 352.758 349.351C352.758 352.73 349.154 356.108 349.154 356.108H352.758C352.758 356.108 352.758 356.108 352.758 359.486C352.758 359.486 352.758 359.486 356.362 359.486C359.966 359.486 359.966 356.108 363.57 356.108C367.174 352.73 374.382 352.73 377.987 349.351C381.591 349.351 381.591 349.351 385.195 345.973C388.799 345.973 392.403 345.973 396.007 342.595C399.611 342.595 403.215 339.216 410.423 339.216C410.423 339.216 410.423 339.216 414.027 339.216C417.631 339.216 421.235 339.216 421.235 335.838C421.235 335.838 424.839 335.838 428.443 332.459C432.047 332.459 432.047 332.459 435.651 329.081C439.255 329.081 442.859 329.081 442.859 325.703H446.463H450.067H453.671C453.671 325.703 453.671 322.324 457.275 322.324C457.275 322.324 457.275 322.324 460.879 322.324C460.879 322.324 460.879 322.324 460.879 318.946C460.879 318.946 460.879 318.946 464.483 318.946C468.087 315.568 471.691 315.568 475.295 315.568L478.899 312.189L482.503 308.811C486.107 308.811 486.107 308.811 486.107 305.432L489.711 302.054L493.315 298.676C496.919 298.676 496.919 298.676 500.523 295.297C500.523 295.297 500.523 291.919 504.127 291.919C507.731 291.919 511.336 288.541 514.94 285.162C518.544 285.162 518.544 281.784 518.544 281.784C522.148 278.405 525.752 278.405 525.752 275.027C529.356 275.027 532.96 271.649 536.564 268.27C540.168 264.892 543.772 261.514 547.376 258.135C550.98 258.135 550.98 254.757 550.98 251.378H547.376V248H543.772C547.376 248 547.376 248 547.376 244.622C550.98 244.622 550.98 241.243 554.584 241.243C558.188 241.243 558.188 237.865 565.396 237.865L569 234.486C569 234.486 569 234.486 565.396 234.486C565.396 234.486 565.396 234.486 561.792 234.486C558.188 234.486 558.188 234.486 554.584 234.486C550.98 234.486 550.98 231.108 550.98 231.108C550.98 231.108 550.98 231.108 550.98 227.73C550.98 227.73 550.98 224.351 547.376 224.351C543.772 224.351 543.772 224.351 540.168 224.351H536.564C532.96 224.351 532.96 224.351 529.356 224.351L525.752 220.973H522.148C518.544 220.973 518.544 220.973 518.544 217.595C518.544 217.595 518.544 217.595 514.94 217.595H511.336C507.732 217.595 507.731 217.595 504.127 220.973C504.127 224.351 500.523 220.973 500.523 220.973C500.523 217.595 500.523 217.595 500.523 217.595C504.128 217.595 504.127 214.216 507.732 214.216C507.732 214.216 507.732 214.216 507.732 210.838C507.732 210.838 507.732 210.838 511.336 210.838C511.336 210.838 514.94 210.838 514.94 207.459C518.544 207.459 518.544 207.459 522.148 204.081C522.148 200.703 522.148 200.703 518.544 200.703C518.544 200.703 518.544 200.703 518.544 204.081C518.544 204.081 518.544 204.081 518.544 200.703C518.544 197.324 518.544 197.324 514.94 197.324C514.94 197.324 514.94 197.324 511.336 197.324H514.94C514.94 197.324 514.94 197.324 511.336 193.946C511.336 193.946 507.732 193.946 507.732 197.324H504.127H500.523C496.919 197.324 496.919 197.324 496.919 197.324C496.919 197.324 496.919 197.324 493.315 197.324C493.315 197.324 493.315 197.324 489.711 197.324C489.711 197.324 489.711 197.324 489.711 193.946C486.107 193.946 486.107 197.324 482.503 197.324C482.503 197.324 482.503 200.703 478.899 200.703C475.295 200.703 475.295 200.703 471.691 204.081C471.691 204.081 471.691 200.703 468.087 204.081C464.483 200.703 464.483 204.081 464.483 204.081C464.483 204.081 464.483 204.081 464.483 207.459C464.483 207.459 464.483 207.459 460.879 207.459H457.275C457.275 204.081 460.879 204.081 460.879 204.081C460.879 204.081 464.483 204.081 464.483 200.703C464.483 200.703 464.483 200.703 468.087 197.324C471.691 197.324 471.691 193.946 475.295 193.946H478.899C478.899 190.568 475.295 193.946 475.295 193.946H471.691H468.087C468.087 193.946 468.087 193.946 464.483 193.946H460.879C460.879 193.946 460.879 193.946 457.275 193.946C457.275 193.946 457.275 193.946 457.275 190.568C457.275 190.568 457.275 190.568 460.879 190.568C464.483 190.568 464.483 190.568 468.087 187.189C471.691 187.189 471.691 187.189 475.295 183.811C471.691 183.811 471.691 187.189 468.087 187.189H464.483C464.483 187.189 468.087 187.189 468.087 183.811L464.483 180.432C460.879 180.432 460.879 180.432 457.275 180.432C453.671 180.432 450.067 177.054 446.463 177.054H450.067C453.671 177.054 453.671 177.054 457.275 177.054H453.671C453.671 177.054 453.671 177.054 450.067 177.054H446.463H442.859H439.255H435.651C435.651 177.054 439.255 177.054 439.255 173.676C435.651 173.676 435.651 173.676 432.047 173.676C432.047 173.676 432.047 173.676 428.443 173.676H424.839H421.235C421.235 173.676 421.235 173.676 417.631 173.676H414.027C414.027 173.676 417.631 173.676 417.631 170.297C417.631 170.297 417.631 170.297 414.027 170.297C414.027 170.297 414.027 170.297 417.631 170.297V166.919C417.631 166.919 417.631 166.919 421.235 166.919H424.839C424.839 166.919 424.839 166.919 428.443 166.919H432.047C435.651 166.919 435.651 166.919 439.255 166.919H442.859C442.859 166.919 442.859 166.919 446.463 166.919C450.067 166.919 450.067 166.919 453.671 163.541L450.067 160.162H446.463H442.859H439.255C439.255 160.162 435.651 160.162 432.047 160.162H428.443C424.839 160.162 424.839 160.162 421.235 160.162C417.631 160.162 414.027 160.162 410.423 163.541H406.819H403.215C403.215 160.162 403.215 160.162 403.215 160.162H406.819H410.423C410.423 160.162 414.027 160.162 414.027 156.784C414.027 156.784 414.027 156.784 417.631 156.784H421.235C421.235 156.784 421.235 156.784 424.839 156.784C424.839 156.784 424.839 156.784 428.443 156.784C428.443 156.784 428.443 156.784 428.443 153.405C428.443 153.405 428.443 153.405 424.839 153.405C424.839 153.405 424.839 153.405 424.839 156.784C421.235 156.784 424.839 156.784 424.839 153.405C424.839 153.405 424.839 153.405 428.443 150.027H432.047C432.047 150.027 428.443 150.027 428.443 153.405C428.443 153.405 428.443 153.405 424.839 153.405C421.235 153.405 421.235 153.405 417.631 156.784C417.631 153.405 417.631 156.784 414.027 156.784C417.631 156.784 417.631 156.784 421.235 153.405H424.839C421.235 153.405 421.235 153.405 417.631 153.405C414.027 153.405 414.027 156.784 410.423 156.784H406.819H403.215C399.611 156.784 399.611 156.784 396.007 160.162C359.966 133.135 356.362 133.135 352.758 133.135C352.758 129.757 356.362 133.135 356.362 133.135C356.362 133.135 359.966 133.135 359.966 129.757C359.966 129.757 363.57 129.757 363.57 126.378C363.57 126.378 367.174 126.378 367.174 123H363.57C363.57 123 363.57 123 367.174 123H363.57H359.966C356.362 123 356.362 123 352.758 123H349.154C345.55 123 345.55 123 341.946 123H338.342C334.738 123 334.738 123 331.134 126.378C327.53 126.378 323.926 129.757 320.322 126.378H316.718C316.718 126.378 316.718 126.378 313.114 126.378C309.51 126.378 309.51 126.378 305.906 126.378H309.51C305.906 126.378 305.906 126.378 305.906 126.378C305.906 126.378 305.906 126.378 302.302 126.378C298.698 126.378 298.698 126.378 295.094 126.378C295.094 126.378 295.094 126.378 291.49 126.378H287.886C287.886 126.378 287.886 126.378 284.282 126.378C284.282 126.378 284.282 126.378 280.678 126.378C277.074 126.378 273.47 126.378 269.866 126.378H266.262C262.658 126.378 262.658 126.378 259.054 126.378C255.45 126.378 251.846 129.757 248.242 129.757C244.638 129.757 244.638 129.757 241.034 133.135C233.825 136.514 230.221 136.514 223.013 139.892C219.409 139.892 219.409 143.27 215.805 143.27C215.805 143.27 215.805 143.27 212.201 143.27H208.597C208.597 143.27 208.597 143.27 204.993 143.27H201.389H197.785C197.785 143.27 201.389 143.27 201.389 139.892H197.785C201.389 139.892 197.785 136.514 197.785 136.514C197.785 136.514 197.785 136.514 194.181 136.514C194.181 136.514 194.181 136.514 194.181 133.135C194.181 133.135 190.577 133.135 190.577 136.514C186.973 136.514 186.973 136.514 183.369 139.892C183.369 139.892 183.369 139.892 179.765 139.892C179.765 139.892 176.161 139.892 176.161 143.27C172.557 146.649 168.953 146.649 165.349 150.027C161.745 150.027 161.745 150.027 158.141 153.405C154.537 156.784 150.933 156.784 147.329 160.162C143.725 163.541 140.121 163.541 136.517 166.919C132.913 166.919 129.309 170.297 125.705 173.676C125.705 173.676 122.101 173.676 122.101 177.054C114.893 180.432 111.289 183.811 104.081 190.568C104.081 190.568 104.081 190.568 104.081 193.946C100.477 197.324 96.8725 197.324 96.8725 200.703C93.2684 200.703 93.2684 204.081 93.2684 204.081L89.6644 207.459L86.0604 210.838C64.4362 204.081 60.8322 207.459 60.8322 210.838C57.2282 214.216 57.2281 214.216 53.6241 217.595L50.0201 220.973H53.6241H57.2281C57.2281 217.595 60.8322 217.595 64.4362 214.216C64.4362 214.216 68.0402 210.838 71.6442 210.838L75.2483 207.459C75.2483 210.838 71.6442 210.838 71.6442 214.216C68.0402 217.595 68.0403 220.973 64.4362 224.351V227.73C60.8322 234.486 57.2281 237.865 57.2281 241.243C57.2281 244.622 53.6241 244.622 53.6241 244.622L50.0201 248C50.0201 248 50.0201 248 50.0201 251.378C46.4161 254.757 46.4161 258.135 42.8121 261.514C42.8121 261.514 42.8121 261.514 42.8121 264.892V268.27C42.8121 271.649 42.8121 271.649 42.8121 275.027V278.405V281.784C42.8121 281.784 42.8121 281.784 42.8121 285.162C42.8121 288.541 42.8121 285.162 46.4161 285.162V288.541C32 312.189 32 312.189 32 315.568C32 318.946 32 318.946 32 315.568ZM86.0604 318.946C86.0604 322.324 86.0604 322.324 86.0604 318.946V318.946ZM287.886 349.351C287.886 352.73 287.886 352.73 287.886 349.351V349.351ZM471.691 224.351C471.691 227.73 471.691 227.73 471.691 224.351V224.351ZM475.295 264.892C475.295 261.514 478.899 261.514 475.295 264.892V264.892ZM125.705 288.541C129.309 288.541 129.309 288.541 125.705 288.541V288.541ZM226.617 180.432C226.617 177.054 226.617 177.054 226.617 180.432V180.432ZM100.476 207.459C100.476 204.081 100.476 204.081 100.476 207.459V207.459ZM244.638 197.324C244.638 200.703 244.638 200.703 244.638 197.324V197.324ZM194.181 254.757C194.181 251.378 194.181 251.378 194.181 254.757V254.757ZM338.342 281.784C338.342 285.162 338.342 285.162 338.342 281.784V281.784ZM150.933 234.486C150.933 231.108 150.933 231.108 150.933 234.486V234.486ZM161.745 244.622C158.141 244.622 158.141 244.622 161.745 244.622V244.622ZM305.906 248C309.51 248 309.51 248 305.906 248V248ZM399.611 234.486C399.611 231.108 399.611 231.108 399.611 234.486V234.486ZM280.678 180.432C277.074 180.432 277.074 180.432 280.678 180.432V180.432ZM197.785 275.027C197.785 278.405 197.785 278.405 197.785 275.027V275.027ZM233.825 190.568C233.825 187.189 237.429 187.189 233.825 190.568V190.568ZM259.054 271.649C259.054 268.27 262.658 268.27 259.054 271.649C259.054 268.27 262.658 271.649 259.054 271.649ZM244.638 180.432C244.638 183.811 244.638 183.811 244.638 180.432V180.432ZM179.765 278.405C176.161 278.405 176.161 278.405 179.765 278.405V278.405ZM414.027 220.973C414.027 217.595 414.027 217.595 414.027 220.973V220.973ZM197.785 214.216C197.785 210.838 197.785 210.838 197.785 214.216V214.216ZM204.993 278.405C204.993 275.027 204.993 275.027 204.993 278.405V278.405ZM460.879 251.378C460.879 248 460.879 248 460.879 251.378V251.378ZM100.476 207.459C96.8725 210.838 96.8725 210.838 100.476 207.459C96.8725 207.459 96.8725 210.838 100.476 207.459ZM71.6442 261.514C71.6442 264.892 71.6442 264.892 71.6442 261.514V261.514ZM125.705 180.432C125.705 183.811 125.705 183.811 125.705 180.432V180.432ZM75.2483 241.243C75.2483 237.865 75.2483 237.865 75.2483 241.243V241.243ZM64.4362 281.784C68.0403 281.784 68.0403 281.784 64.4362 281.784V281.784ZM453.671 248C457.275 244.622 457.275 248 453.671 248V248ZM323.926 133.135C320.322 133.135 320.322 133.135 323.926 133.135V133.135ZM273.47 129.757C273.47 126.378 273.47 126.378 273.47 129.757V129.757ZM122.101 295.297C118.497 295.297 118.497 295.297 122.101 295.297C118.497 298.676 118.497 298.676 122.101 295.297C118.497 298.676 118.497 295.297 122.101 295.297ZM118.497 318.946C118.497 315.568 118.497 315.568 118.497 318.946V318.946ZM219.409 329.081C215.805 329.081 215.805 329.081 219.409 329.081V329.081ZM471.691 241.243C468.087 241.243 468.087 241.243 471.691 241.243V241.243ZM64.4362 285.162C68.0403 288.541 68.0403 288.541 64.4362 285.162V285.162ZM114.893 322.324C114.893 325.703 114.893 325.703 114.893 322.324V322.324ZM486.107 234.486C486.107 237.865 486.107 237.865 486.107 234.486V234.486ZM305.906 339.216C305.906 335.838 305.906 335.838 305.906 339.216V339.216ZM313.114 356.108C316.718 356.108 316.718 356.108 313.114 356.108V356.108ZM392.403 143.27C392.403 139.892 392.403 139.892 392.403 143.27V143.27ZM60.8322 244.622C60.8322 248 60.8322 248 60.8322 244.622V244.622ZM104.081 315.568C107.685 315.568 107.685 315.568 104.081 315.568V315.568ZM197.785 312.189C197.785 315.568 197.785 315.568 197.785 312.189V312.189ZM93.2684 342.595C96.8724 342.595 96.8724 342.595 93.2684 342.595C96.8724 339.216 96.8724 342.595 93.2684 342.595Z" fill="#F8F8F8"/>
<g clip-path="url(#clip1_1388_102596)">
<path opacity="0.12" d="M739.439 448.917L732.753 473.115L708.542 466.472L703.29 485.455L727.5 492.098L720.814 516.297L739.81 521.502L746.496 497.303L770.707 503.946L775.951 484.968L751.74 478.325L758.426 454.126L739.439 448.917Z" fill="#8C62FF"/>
<path opacity="0.9" d="M730.791 438.364L724.105 462.563L699.894 455.919L694.65 474.897L718.861 481.54L712.174 505.739L731.166 510.958L737.853 486.759L762.064 493.402L767.311 474.411L743.092 467.772L749.787 443.569L730.791 438.364Z" stroke="#8C62FF" stroke-width="0.663554" stroke-linecap="round" stroke-linejoin="round"/>
</g>
<path opacity="0.12" d="M-12 195.188C50.3999 426.409 219.78 770.847 339.958 408.007C490.18 -45.5417 680.745 653.077 813.735 322.634C927.44 40.107 1053.61 63.6206 1123.42 215.916C1188.95 358.859 1304.06 390.375 1373.86 253.267C1416.24 170.022 1414.36 8.51202 1453 1.47237e-05" stroke="#F16E16" stroke-linecap="round"/>
<path opacity="0.12" d="M1453 370.812C1390.6 139.591 1221.22 -204.847 1101.04 157.993C950.82 611.542 760.255 -87.0768 627.265 243.366C513.56 525.893 387.389 502.379 317.577 350.084C252.051 207.141 136.939 175.625 67.1414 312.733C24.764 395.978 26.638 557.488 -12 566" stroke="#F16E16" stroke-linecap="round"/>
<path opacity="0.5" d="M815 59L823.643 82.3571L847 91L823.643 99.6429L815 123L806.357 99.6429L783 91L806.357 82.3571L815 59Z" fill="#E9EAEC"/>
<path opacity="0.5" d="M858 96L863.402 110.598L878 116L863.402 121.402L858 136L852.598 121.402L838 116L852.598 110.598L858 96Z" fill="#E9EAEC"/>
</g>
<defs>
<clipPath id="clip0_1388_102596">
<rect width="1440" height="653" fill="white"/>
</clipPath>
<clipPath id="clip1_1388_102596">
<rect width="66.6971" height="77.7237" fill="white" transform="translate(686.436 462.435) rotate(-29.6052)"/>
</clipPath>
</defs>
</svg>
