<svg width="539" height="469" viewBox="0 0 539 469" fill="none" xmlns="http://www.w3.org/2000/svg">
<rect x="27.459" y="16" width="134.694" height="134.694" rx="14.6939" fill="#6D80E6" fill-opacity="0.2"/>
<g clip-path="url(#clip0_850_65410)">
<path d="M99.3984 80.1374C99.3984 79.3738 100.017 78.7549 100.781 78.7549H117.914C118.677 78.7549 119.296 79.3738 119.296 80.1374V90.2345C119.296 95.7291 114.842 100.183 109.347 100.183C103.853 100.183 99.3984 95.7291 99.3984 90.2345V80.1374Z" fill="url(#paint0_linear_850_65410)"/>
<path d="M84.0918 77.5701C84.0918 76.5339 84.9318 75.6938 85.968 75.6938H106.705C107.742 75.6938 108.582 76.5339 108.582 77.5701V92.5306C108.582 99.2933 103.099 104.775 96.3367 104.775C89.574 104.775 84.0918 99.2933 84.0918 92.5306V77.5701Z" fill="url(#paint1_linear_850_65410)"/>
<circle cx="111.643" cy="71.1016" r="4.59184" fill="#34439E"/>
<circle cx="111.643" cy="71.1016" r="4.59184" fill="url(#paint2_linear_850_65410)"/>
<circle cx="97.8676" cy="68.0404" r="6.12245" fill="url(#paint3_linear_850_65410)"/>
<mask id="mask0_850_65410" style="mask-type:alpha" maskUnits="userSpaceOnUse" x="84" y="58" width="25" height="47">
<path d="M96.3367 74.1631C100.563 74.1631 103.99 70.7367 103.99 66.51C103.99 62.2832 100.563 58.8569 96.3367 58.8569C92.1099 58.8569 88.6836 62.2832 88.6836 66.51C88.6836 70.7367 92.1099 74.1631 96.3367 74.1631Z" fill="url(#paint4_linear_850_65410)"/>
<path d="M85.9681 75.6937C84.9318 75.6937 84.0918 76.5337 84.0918 77.5699V92.5304C84.0918 99.2932 89.5739 104.775 96.3367 104.775C103.099 104.775 108.582 99.2932 108.582 92.5304V77.5699C108.582 76.5337 107.742 75.6937 106.705 75.6937H85.9681Z" fill="url(#paint5_linear_850_65410)"/>
</mask>
<g mask="url(#mask0_850_65410)">
<path d="M81.0303 77.2242C81.0303 74.6882 83.0861 72.6323 85.6221 72.6323H96.3364C98.8724 72.6323 100.928 74.6882 100.928 77.2242V95.5915C100.928 98.1275 98.8724 100.183 96.3364 100.183H81.0303V77.2242Z" fill="black" fill-opacity="0.3"/>
</g>
<rect x="70.3164" y="69.5713" width="27.551" height="27.551" rx="3.06122" fill="url(#paint6_linear_850_65410)"/>
<path d="M90.2146 75.6938H77.9697V78.5021H82.5538V91H85.6305V78.5021H90.2146V75.6938Z" fill="white"/>
</g>
<rect x="27.459" y="166.694" width="134.694" height="134.694" rx="14.6939" fill="#ECB22E" fill-opacity="0.2"/>
<path d="M111.949 232.408C114.203 232.408 116.03 230.58 116.03 228.326C116.03 226.072 114.203 224.245 111.949 224.245C109.695 224.245 107.867 226.072 107.867 228.327V232.408H111.949ZM100.52 232.408C102.774 232.408 104.602 230.58 104.602 228.326V216.898C104.602 214.644 102.774 212.816 100.52 212.816C98.2659 212.816 96.4385 214.644 96.4385 216.898V228.326C96.4385 230.58 98.2659 232.408 100.52 232.408Z" fill="#2EB67D"/>
<path d="M77.6623 235.674C75.4083 235.674 73.581 237.502 73.581 239.756C73.581 242.01 75.4084 243.837 77.6625 243.837C79.9167 243.837 81.7443 242.01 81.7443 239.755V235.674H77.6623ZM89.0912 235.674C86.837 235.674 85.0096 237.502 85.0096 239.756V251.184C85.0096 253.438 86.837 255.266 89.0912 255.266C91.3454 255.266 93.1729 253.438 93.1729 251.184V239.756C93.1729 237.502 91.3454 235.674 89.0912 235.674Z" fill="#E01E5A"/>
<path d="M96.4391 251.184C96.4391 253.438 98.2664 255.265 100.52 255.265C102.774 255.265 104.602 253.438 104.602 251.184C104.602 248.929 102.774 247.102 100.52 247.102L96.4391 247.102L96.4391 251.184ZM96.4391 239.755C96.4391 242.009 98.2665 243.837 100.521 243.837L111.949 243.837C114.203 243.837 116.03 242.009 116.03 239.755C116.03 237.501 114.203 235.673 111.949 235.673L100.521 235.673C98.2665 235.673 96.4391 237.501 96.4391 239.755Z" fill="#ECB22E"/>
<path d="M93.1722 216.898C93.1722 214.644 91.3449 212.816 89.0909 212.816C86.8369 212.816 85.0096 214.644 85.0096 216.898C85.0096 219.152 86.837 220.98 89.0913 220.98L93.1722 220.98L93.1722 216.898ZM93.1722 228.327C93.1722 226.072 91.3448 224.245 89.0906 224.245L77.6627 224.245C75.4085 224.245 73.5811 226.072 73.5811 228.327C73.5811 230.581 75.4085 232.408 77.6627 232.408L89.0906 232.408C91.3448 232.408 93.1722 230.581 93.1722 228.327Z" fill="#36C5F0"/>
<rect x="27.459" y="317.388" width="134.694" height="134.694" rx="14.6939" fill="#1462B2" fill-opacity="0.2"/>
<g clip-path="url(#clip1_850_65410)">
<mask id="mask1_850_65410" style="mask-type:alpha" maskUnits="userSpaceOnUse" x="70" y="369" width="50" height="32">
<path d="M82.3008 400.04C75.6819 400.04 70.3164 394.787 70.3164 388.306C70.3164 381.967 75.4489 376.803 81.8666 376.579C84.5134 372.293 89.318 369.428 94.8062 369.428C101.894 369.428 107.842 374.207 109.474 380.653C114.906 380.694 119.296 385.018 119.296 390.347C119.296 395.529 114.704 400.04 109.917 400.027L82.3008 400.04Z" fill="#C4C4C4"/>
</mask>
<g mask="url(#mask1_850_65410)">
<path d="M82.3014 400.041C78.5484 400.041 75.1984 398.352 73.001 395.708L97.9331 385.245L117.32 396.16C115.611 398.389 113.031 400.041 110.113 400.028C105.712 400.041 88.78 400.041 82.3014 400.041Z" fill="url(#paint7_linear_850_65410)"/>
<path d="M109.468 380.625L97.9336 385.245L117.32 396.16C118.562 394.54 119.297 392.528 119.297 390.347C119.297 385.019 114.907 380.694 109.475 380.653C109.472 380.644 109.47 380.634 109.468 380.625Z" fill="url(#paint8_linear_850_65410)"/>
<path d="M81.1289 376.626L97.9317 385.245L109.466 380.624C107.824 374.192 101.883 369.428 94.8054 369.428C89.3172 369.428 84.5125 372.293 81.8658 376.579C81.6182 376.587 81.3725 376.603 81.1289 376.626Z" fill="url(#paint9_linear_850_65410)"/>
<path d="M73.0003 395.707L97.9326 385.244L81.1297 376.626C75.0605 377.202 70.3164 382.211 70.3164 388.305C70.3164 391.111 71.3223 393.688 73.0003 395.707Z" fill="url(#paint10_linear_850_65410)"/>
</g>
</g>
<rect x="202.153" width="134.694" height="134.694" rx="14.6939" fill="#34A853" fill-opacity="0.2"/>
<path d="M282.236 51.6108L269.636 61.4444L256.747 51.6108V51.6135L256.763 51.6268V65.3964L269.49 75.4426L282.236 65.7844V51.6108Z" fill="#EA4335"/>
<path d="M285.543 49.2189L282.234 51.6109V65.7845L292.647 57.7901V52.9743C292.647 52.9743 291.383 46.0961 285.543 49.2189Z" fill="#FBBC05"/>
<path d="M282.234 65.7844V84.1678H290.215C290.215 84.1678 292.486 83.934 292.65 81.3454V57.79L282.234 65.7844Z" fill="#34A853"/>
<path d="M256.763 84.184V65.3966L256.747 65.3833L256.763 84.184Z" fill="#C5221F"/>
<path d="M256.747 51.6135L253.456 49.2348C247.616 46.112 246.35 52.9875 246.35 52.9875V57.8033L256.747 65.3831V51.6135Z" fill="#C5221F"/>
<path d="M256.747 51.6128V65.3824L256.763 65.3957V51.6261L256.747 51.6128Z" fill="#C5221F"/>
<path d="M246.35 57.8066V81.362C246.511 83.9532 248.784 84.1844 248.784 84.1844H256.765L256.747 65.3838L246.35 57.8066Z" fill="#4285F4"/>
<rect x="202.153" y="166.694" width="134.694" height="134.694" rx="14.6939" fill="#2684FF" fill-opacity="0.2"/>
<path fill-rule="evenodd" clip-rule="evenodd" d="M271.95 241.492C271.95 249.212 278.391 255.469 286.337 255.469V227.619L271.95 237.192V241.492Z" fill="url(#paint11_linear_850_65410)"/>
<path fill-rule="evenodd" clip-rule="evenodd" d="M286.337 227.618V214.687C286.336 213.917 285.897 213.212 285.197 212.852C284.497 212.493 283.649 212.539 282.995 212.972L249.603 235.12C254.071 241.5 263.016 243.154 269.584 238.816L286.337 227.618Z" fill="#2684FF"/>
<rect x="202.153" y="333.388" width="134.694" height="134.694" rx="14.6939" fill="#1275B1" fill-opacity="0.2"/>
<rect x="240.034" y="371.269" width="58.9312" height="58.9312" rx="29.4656" fill="#1275B1"/>
<path d="M262.384 387.458C262.384 389.425 260.679 391.02 258.576 391.02C256.472 391.02 254.768 389.425 254.768 387.458C254.768 385.491 256.472 383.897 258.576 383.897C260.679 383.897 262.384 385.491 262.384 387.458Z" fill="white"/>
<path d="M255.288 393.638H261.798V413.363H255.288V393.638Z" fill="white"/>
<path d="M272.278 393.638H265.768V413.363H272.278C272.278 413.363 272.278 407.153 272.278 403.27C272.278 400.94 273.073 398.599 276.248 398.599C279.837 398.599 279.815 401.649 279.798 404.012C279.776 407.1 279.829 410.252 279.829 413.363H286.338V402.952C286.283 396.305 284.551 393.242 278.852 393.242C275.468 393.242 273.37 394.778 272.278 396.168V393.638Z" fill="white"/>
<rect x="376.847" y="16" width="134.694" height="134.694" rx="14.6939" fill="#4087FC" fill-opacity="0.2"/>
<path d="M414.728 74.0863C414.728 67.0139 414.728 63.4777 416.104 60.7764C417.315 58.4003 419.246 56.4684 421.623 55.2577C424.324 53.8813 427.86 53.8813 434.933 53.8813H453.454C460.526 53.8813 464.062 53.8813 466.764 55.2577C469.14 56.4684 471.072 58.4003 472.282 60.7764C473.659 63.4777 473.659 67.0139 473.659 74.0863V92.6076C473.659 99.68 473.659 103.216 472.282 105.918C471.072 108.294 469.14 110.226 466.764 111.436C464.062 112.813 460.526 112.813 453.454 112.813H434.933C427.86 112.813 424.324 112.813 421.623 111.436C419.246 110.226 417.315 108.294 416.104 105.918C414.728 103.216 414.728 99.68 414.728 92.6076V74.0863Z" fill="#4087FC"/>
<path d="M427.917 70.7188C426.445 70.7188 425.251 72.0649 425.251 73.7254V88.3079C425.251 92.5423 428.295 95.975 432.049 95.975L447.841 95.8247C449.314 95.8247 450.507 94.4786 450.507 92.818V78.0852C450.507 73.8508 446.895 70.7188 443.141 70.7188L427.917 70.7188Z" fill="white"/>
<path d="M454.111 76.4595C453.158 77.4015 452.612 78.761 452.612 80.1899V86.292C452.612 87.7209 453.158 89.0804 454.111 90.0224L460.039 95.2435C461.245 96.4362 463.135 95.4702 463.135 93.6609V73.1079C463.135 71.2987 461.245 70.3326 460.039 71.5253L454.111 76.4595Z" fill="white"/>
<rect x="376.847" y="166.694" width="134.694" height="134.694" rx="14.6939" fill="#DAF8FE"/>
<circle cx="444.194" cy="234.041" r="17.1429" fill="#0F287F"/>
<path fill-rule="evenodd" clip-rule="evenodd" d="M438.071 224.245L431.948 227.918L438.071 231.592L431.948 235.265L438.071 238.939L444.193 235.265L450.316 238.939L456.438 235.265L450.316 231.592L456.438 227.918L450.316 224.245L444.193 227.918L438.071 224.245ZM444.193 227.918L450.316 231.592L444.193 235.265L438.071 231.592L444.193 227.918Z" fill="#DAF8FE"/>
<path d="M438.071 241.387L444.193 237.714L450.316 241.387L444.193 245.061L438.071 241.387Z" fill="#DAF8FE"/>
<rect x="376.847" y="317.388" width="134.694" height="134.694" rx="14.6939" fill="black" fill-opacity="0.1"/>
<path fill-rule="evenodd" clip-rule="evenodd" d="M428.453 404.966L423.188 398.408C421.922 396.83 421.234 394.89 421.234 392.893V369.145C421.234 366.154 423.628 363.672 426.715 363.461L451.13 361.794C452.904 361.673 454.667 362.144 456.124 363.13L464.703 368.929C466.238 369.968 467.153 371.665 467.153 373.476V400.474C467.153 403.402 464.8 405.825 461.777 406.011L434.678 407.679C432.266 407.828 429.934 406.812 428.453 404.966Z" fill="white"/>
<path d="M436.921 381.028V380.717C436.921 379.929 437.552 379.276 438.365 379.221L444.291 378.826L452.485 390.893V380.302L450.376 380.021V379.873C450.376 379.076 451.022 378.418 451.846 378.376L457.237 378.099V378.875C457.237 379.24 456.966 379.551 456.595 379.614L455.298 379.833V396.985L453.669 397.545C452.309 398.013 450.795 397.512 450.016 396.337L442.06 384.332V395.79L444.509 396.259L444.475 396.486C444.368 397.197 443.754 397.735 443.011 397.768L436.921 398.039C436.84 397.274 437.414 396.59 438.205 396.507L439.006 396.423V381.145L436.921 381.028Z" fill="black"/>
<path fill-rule="evenodd" clip-rule="evenodd" d="M451.349 364.786L426.934 366.453C425.472 366.552 424.338 367.728 424.338 369.145V392.892C424.338 394.224 424.796 395.517 425.641 396.569L430.905 403.127C431.756 404.188 433.096 404.771 434.481 404.686L461.58 403.018C462.969 402.933 464.05 401.819 464.05 400.474V373.476C464.05 372.643 463.63 371.864 462.924 371.387L454.346 365.587C453.471 364.996 452.414 364.713 451.349 364.786ZM428.145 369.516C427.805 369.264 427.967 368.74 428.393 368.71L451.514 367.051C452.25 366.999 452.982 367.201 453.578 367.624L458.217 370.91C458.393 371.035 458.31 371.304 458.092 371.316L433.608 372.648C432.867 372.688 432.136 372.47 431.547 372.034L428.145 369.516ZM432.46 376.822C432.46 376.027 433.102 375.37 433.924 375.325L459.811 373.915C460.612 373.872 461.286 374.487 461.286 375.263V398.64C461.286 399.434 460.646 400.091 459.826 400.137L434.102 401.601C433.211 401.652 432.46 400.967 432.46 400.104V376.822Z" fill="black"/>
<defs>
<linearGradient id="paint0_linear_850_65410" x1="99.3984" y1="79.8827" x2="119.54" y2="93.0439" gradientUnits="userSpaceOnUse">
<stop stop-color="#364088"/>
<stop offset="1" stop-color="#6E7EE1"/>
</linearGradient>
<linearGradient id="paint1_linear_850_65410" x1="84.0918" y1="88.5569" x2="108.582" y2="88.5569" gradientUnits="userSpaceOnUse">
<stop stop-color="#515FC4"/>
<stop offset="1" stop-color="#7084EA"/>
</linearGradient>
<linearGradient id="paint2_linear_850_65410" x1="107.051" y1="66.9931" x2="115.923" y2="73.2363" gradientUnits="userSpaceOnUse">
<stop stop-color="#364088"/>
<stop offset="1" stop-color="#6E7EE1"/>
</linearGradient>
<linearGradient id="paint3_linear_850_65410" x1="93.4944" y1="63.6672" x2="101.366" y2="72.8509" gradientUnits="userSpaceOnUse">
<stop stop-color="#4858AE"/>
<stop offset="1" stop-color="#4E60CE"/>
</linearGradient>
<linearGradient id="paint4_linear_850_65410" x1="90.8702" y1="61.0435" x2="100.71" y2="72.5231" gradientUnits="userSpaceOnUse">
<stop stop-color="#4858AE"/>
<stop offset="1" stop-color="#4E60CE"/>
</linearGradient>
<linearGradient id="paint5_linear_850_65410" x1="90.8702" y1="61.0435" x2="100.71" y2="72.5231" gradientUnits="userSpaceOnUse">
<stop stop-color="#4858AE"/>
<stop offset="1" stop-color="#4E60CE"/>
</linearGradient>
<linearGradient id="paint6_linear_850_65410" x1="70.3164" y1="83.3468" x2="97.8674" y2="83.3468" gradientUnits="userSpaceOnUse">
<stop stop-color="#2A3887"/>
<stop offset="1" stop-color="#4C56B9"/>
</linearGradient>
<linearGradient id="paint7_linear_850_65410" x1="77.0908" y1="398" x2="111.996" y2="395.872" gradientUnits="userSpaceOnUse">
<stop stop-color="#2086B8"/>
<stop offset="1" stop-color="#46D3F6"/>
</linearGradient>
<linearGradient id="paint8_linear_850_65410" x1="106.792" y1="390.347" x2="116.558" y2="383.522" gradientUnits="userSpaceOnUse">
<stop stop-color="#1694DB"/>
<stop offset="1" stop-color="#62C3FE"/>
</linearGradient>
<linearGradient id="paint9_linear_850_65410" x1="83.342" y1="371.469" x2="106.031" y2="384.635" gradientUnits="userSpaceOnUse">
<stop stop-color="#0D3D78"/>
<stop offset="1" stop-color="#063B83"/>
</linearGradient>
<linearGradient id="paint10_linear_850_65410" x1="69.7953" y1="390.856" x2="92.6074" y2="382.385" gradientUnits="userSpaceOnUse">
<stop stop-color="#16589B"/>
<stop offset="1" stop-color="#1464B7"/>
</linearGradient>
<linearGradient id="paint11_linear_850_65410" x1="274.424" y1="233.198" x2="286.252" y2="236.112" gradientUnits="userSpaceOnUse">
<stop offset="0.17" stop-color="#0052CC"/>
<stop offset="1" stop-color="#2684FF"/>
</linearGradient>
<clipPath id="clip0_850_65410">
<rect width="48.9796" height="48.9796" fill="white" transform="translate(70.3164 58.8569)"/>
</clipPath>
<clipPath id="clip1_850_65410">
<rect width="48.9796" height="48.9796" fill="white" transform="translate(70.3164 360.245)"/>
</clipPath>
</defs>
</svg>
