<svg width="1128" height="444" viewBox="0 0 1128 444" fill="none" xmlns="http://www.w3.org/2000/svg">
<g clip-path="url(#clip0_1388_103563)">
<rect width="1128" height="444" rx="32" fill="url(#paint0_linear_1388_103563)"/>
<path opacity="0.12" d="M-210 195.188C-147.6 426.409 21.7803 770.847 141.958 408.007C292.18 -45.5417 482.745 653.077 615.735 322.634C729.44 40.107 855.611 63.6206 925.423 215.916C990.949 358.859 1106.06 390.375 1175.86 253.267C1218.24 170.022 1216.36 8.51202 1255 1.47237e-05" stroke="white" stroke-linecap="round"/>
<path opacity="0.12" d="M334.615 -11.4364C259.846 -85.965 119.31 -180.153 153.438 -15.1639C196.098 191.073 -30.5852 -33.6636 -8.48557 121.78C10.4094 254.683 -42.906 273.496 -103.107 230.731C-159.61 190.592 -210.471 203.914 -206.878 271.631C-204.696 312.744 -168.382 373.991 -181.246 385.751" stroke="white" stroke-linecap="round"/>
<path opacity="0.12" d="M915.54 -122.08C887.054 -72.5722 857.495 14.0517 938.934 -26.8994C1040.73 -78.0883 955.007 71.8389 1033.14 38.5099C1099.94 10.0137 1117.23 35.233 1103.31 72.6785C1090.24 107.825 1104.31 132.531 1139.19 121.164C1160.37 114.263 1187.3 86.7073 1195.24 91.7803" stroke="white" stroke-linecap="round"/>
<g clip-path="url(#clip1_1388_103563)">
<path opacity="0.12" d="M1036.88 142.283L1026.8 178.752L990.315 168.74L982.4 197.348L1018.89 207.359L1008.81 243.828L1037.44 251.672L1047.51 215.204L1084 225.215L1091.9 196.615L1055.42 186.603L1065.49 150.135L1036.88 142.283Z" fill="white"/>
<path opacity="0.9" d="M1023.84 126.38L1013.77 162.848L977.282 152.837L969.379 181.437L1005.87 191.449L995.789 227.917L1024.41 235.782L1034.49 199.313L1070.97 209.325L1078.88 180.704L1042.38 170.7L1052.47 134.224L1023.84 126.38Z" stroke="white" stroke-linecap="round" stroke-linejoin="round"/>
</g>
<g clip-path="url(#clip2_1388_103563)">
<path opacity="0.12" d="M66.8137 123.763L62.422 139.657L46.5199 135.294L43.0701 147.762L58.9722 152.125L54.5804 168.019L67.0572 171.438L71.4489 155.544L87.351 159.907L90.7952 147.442L74.8931 143.079L79.2848 127.185L66.8137 123.763Z" fill="white"/>
<path opacity="0.9" d="M61.1333 116.832L56.7415 132.726L40.8395 128.363L37.3953 140.828L53.2974 145.191L48.9056 161.085L61.38 164.513L65.7717 148.619L81.6737 152.982L85.1204 140.508L69.2127 136.148L73.61 120.251L61.1333 116.832Z" stroke="white" stroke-width="0.435834" stroke-linecap="round" stroke-linejoin="round"/>
</g>
</g>
<defs>
<linearGradient id="paint0_linear_1388_103563" x1="7.89797e-05" y1="4.28908" x2="1128" y2="436.106" gradientUnits="userSpaceOnUse">
<stop stop-color="#AB51FF"/>
<stop offset="0.0666667" stop-color="#AB50FF"/>
<stop offset="0.133333" stop-color="#A84EFD"/>
<stop offset="0.2" stop-color="#A44BFB"/>
<stop offset="0.266667" stop-color="#9D45F7"/>
<stop offset="0.333333" stop-color="#953FF3"/>
<stop offset="0.4" stop-color="#8B37EE"/>
<stop offset="0.466667" stop-color="#812EE8"/>
<stop offset="0.533333" stop-color="#7625E3"/>
<stop offset="0.6" stop-color="#6B1DDD"/>
<stop offset="0.666667" stop-color="#6115D8"/>
<stop offset="0.733333" stop-color="#590ED4"/>
<stop offset="0.8" stop-color="#5309D0"/>
<stop offset="0.866667" stop-color="#4F05CE"/>
<stop offset="0.933333" stop-color="#4C03CC"/>
<stop offset="1" stop-color="#4B03CC"/>
</linearGradient>
<clipPath id="clip0_1388_103563">
<rect width="1128" height="444" rx="32" fill="white"/>
</clipPath>
<clipPath id="clip1_1388_103563">
<rect width="100.515" height="117.132" fill="white" transform="translate(957 162.656) rotate(-29.6052)"/>
</clipPath>
<clipPath id="clip2_1388_103563">
<rect width="43.8079" height="51.0503" fill="white" transform="translate(32 132.642) rotate(-29.6052)"/>
</clipPath>
</defs>
</svg>
