<svg width="116" height="36" viewBox="0 0 116 36" fill="none" xmlns="http://www.w3.org/2000/svg">
<path fill-rule="evenodd" clip-rule="evenodd" d="M63.0099 35.4298H71.8334V17.1312H75.3356V12.3529H71.8334V8.47056C71.8334 6.31673 72.5302 5.13121 73.9239 4.91401C74.1229 4.87781 74.3401 4.85971 74.5754 4.85971C75.4985 4.85971 76.3944 5.07691 77.2632 5.5113L78.2949 1.38461C78.0234 1.11312 77.3447 0.814477 76.2587 0.488687C75.1727 0.162895 74.0144 0 72.7836 0C71.408 0 70.1592 0.171946 69.037 0.515837C67.9329 0.841627 66.9193 1.37556 65.9963 2.11764C65.0913 2.85972 64.3854 3.90044 63.8786 5.23981C63.3718 6.57917 63.1185 8.16287 63.1185 9.99092V12.3529L60.4578 13.4857V12.3529H56.9556V8.47056C56.9556 6.31673 57.6524 5.13121 59.0461 4.91401C59.2452 4.87781 59.4624 4.85971 59.6977 4.85971C60.6207 4.85971 61.5167 5.07691 62.3854 5.5113L63.4171 1.38461C63.1456 1.11312 62.4669 0.814477 61.3809 0.488687C60.2949 0.162895 59.1366 0 57.9058 0C56.5302 0 55.2814 0.171946 54.1592 0.515837C53.0551 0.841627 52.0416 1.37556 51.1185 2.11764C50.2135 2.85972 49.5076 3.90044 49.0008 5.23981C48.4941 6.57917 48.2407 8.16287 48.2407 9.99092V12.3529L45.4986 13.5203V17.1312H48.1321V35.4298H56.9556V17.1312H60.3764H60.4578H63.0099V35.4298ZM107.341 21.3937C107.341 19.0951 107.224 17.4661 106.988 16.5068C106.753 15.5476 106.319 15.0679 105.685 15.0679C105.142 15.0679 104.699 15.1675 104.355 15.3666C104.011 15.5476 103.758 15.8462 103.595 16.2625C103.432 16.6607 103.323 17.077 103.269 17.5114C103.233 17.9277 103.215 18.4616 103.215 19.1132V21.3937H107.341ZM105.169 36C103.142 36 101.377 35.6923 99.8752 35.0769C98.3911 34.4615 97.2146 33.6018 96.3458 32.4977C95.4951 31.3937 94.8707 30.1539 94.4725 28.7783C94.0743 27.3846 93.8752 25.8371 93.8752 24.1358C93.8752 20.0815 94.9069 17.0136 96.9703 14.9322C99.0336 12.8507 101.92 11.81 105.631 11.81C109.196 11.81 111.748 12.6517 113.287 14.3349C114.825 16.0001 115.595 18.6878 115.595 22.3982V25.4118H103.187V25.9276C103.187 26.9955 103.296 27.8733 103.513 28.5611C103.749 29.2489 104.083 29.7557 104.518 30.0815C104.952 30.4073 105.396 30.6245 105.848 30.733C106.301 30.8416 106.853 30.8959 107.504 30.8959C108.138 30.8959 108.816 30.8145 109.54 30.6516C110.282 30.4887 111.025 30.2353 111.767 29.8914C112.527 29.5475 113.16 29.1403 113.667 28.6697L115.269 31.4118C114.599 32.4978 113.613 33.4118 112.31 34.1539C111.025 34.8778 109.785 35.3665 108.59 35.6199C107.396 35.8733 106.255 36 105.169 36ZM86.0244 35.4299H77.2552V17.8643L75.6262 16.8598V13.7919L81.4633 12.353H83.6624L84.4497 18.8145C85.1918 14.3802 87.5719 12.163 91.59 12.163C92.0425 12.163 92.513 12.2444 93.0017 12.4073L92.0787 22.0724C91.6986 21.7285 90.866 21.5566 89.5809 21.5566C87.7348 21.5566 86.5493 22.0453 86.0244 23.0227V35.4299ZM36.4879 33.0136L36.2164 33.3122C36.0354 33.5294 35.7549 33.7828 35.3748 34.0724C35.0128 34.362 34.5874 34.6516 34.0988 34.9412C33.6282 35.2308 33.049 35.4751 32.3612 35.6742C31.6734 35.8914 30.9675 36 30.2436 36C25.3567 36 22.9133 33.5837 22.9133 28.7512C22.9133 27.81 23.0852 26.9503 23.4291 26.172C23.773 25.3756 24.2164 24.7059 24.7594 24.1629C25.3024 23.6199 25.954 23.1403 26.7142 22.724C27.4743 22.2896 28.2345 21.9548 28.9947 21.7195C29.773 21.4661 30.5875 21.258 31.4381 21.0951C32.2888 20.9322 33.049 20.8236 33.7187 20.7693C34.3884 20.715 35.0309 20.6878 35.6463 20.6878V20.1991C35.6463 19.0951 35.3476 18.3168 34.7503 17.8643C34.1712 17.4118 33.23 17.1856 31.9268 17.1856C30.8046 17.1856 29.6372 17.3213 28.4246 17.5928C27.2119 17.8462 26.2617 18.1539 25.5739 18.5159L23.8363 14.8236C25.0671 14.0272 26.6689 13.3304 28.6418 12.7331C30.6146 12.1177 32.6236 11.81 34.6689 11.81C36.4788 11.81 37.972 11.991 39.1485 12.353C40.325 12.6969 41.2752 13.2942 41.9992 14.1449C42.7413 14.9774 43.2662 16.0453 43.5738 17.3485C43.8815 18.6335 44.0354 20.2715 44.0354 22.2625V33.3122L44.7956 35.4299H37.3567L36.4879 33.0136ZM34.3431 31.2217C34.5784 31.2217 34.7956 31.1765 34.9947 31.086C35.2119 30.9774 35.3748 30.8778 35.4834 30.7873L35.6463 30.6245V24.1086C34.5422 24.1086 33.6644 24.4163 33.0128 25.0317C32.3612 25.629 32.0354 26.5611 32.0354 27.8281C32.0354 30.0905 32.8046 31.2217 34.3431 31.2217ZM0 29.8099V35.4298H22.018V28.5881L9.58368 29.1854L11.457 27.0678L21.6922 8.25336V3.61084H0.895925V10.5339L11.647 9.93661L9.47509 12.4886L0 29.8099Z" fill="#111827"/>
</svg>
