<svg width="262" height="48" viewBox="0 0 262 48" fill="none" xmlns="http://www.w3.org/2000/svg">
<path d="M11.8925 24C11.8925 14.4687 18.2463 6.42499 26.9462 3.85971C25.0156 3.28955 23.013 3.00002 20.9999 3C9.40202 3 0 12.4021 0 24C0 35.5986 9.4021 45 21 45C23.013 45.0001 25.0156 44.7108 26.9463 44.141C18.2457 41.5763 11.8925 33.532 11.8925 24Z" fill="url(#paint0_linear_26_4096)"/>
<path d="M27.5675 15.8327C32.6942 15.8327 37.0215 19.2504 38.4009 23.9308C38.7072 22.8922 38.8628 21.815 38.8629 20.7322C38.8629 14.4946 33.8058 9.43817 27.5675 9.4375C21.3292 9.4375 16.2715 14.4939 16.2715 20.7316C16.2715 21.8426 16.4355 22.9162 16.7348 23.9301C18.1149 19.2504 22.4416 15.8333 27.5675 15.8327Z" fill="url(#paint1_linear_26_4096)"/>
<path d="M31.5178 27.6438C31.5178 31.4566 28.9749 34.6748 25.4941 35.7006C26.2667 35.9288 27.0681 36.0446 27.8737 36.0444C32.5121 36.0444 36.2743 32.2834 36.2743 27.6431C36.2743 23.0029 32.514 19.2412 27.8737 19.2412C27.0482 19.2412 26.2482 19.3619 25.4941 19.5851C28.9749 20.6115 31.5178 23.8297 31.5178 27.6438Z" fill="url(#paint2_linear_26_4096)"/>
<path d="M62.5813 39V14.72H53.2613V10.2H76.7213V14.72H67.4013V39H62.5813ZM83.1466 39.6C81.5866 39.6 80.2666 39.3067 79.1866 38.72C78.1066 38.12 77.2866 37.3267 76.7266 36.34C76.18 35.3533 75.9066 34.2667 75.9066 33.08C75.9066 32.04 76.08 31.1067 76.4266 30.28C76.7733 29.44 77.3066 28.72 78.0266 28.12C78.7466 27.5067 79.68 27.0067 80.8266 26.62C81.6933 26.34 82.7066 26.0867 83.8666 25.86C85.04 25.6333 86.3066 25.4267 87.6666 25.24C89.04 25.04 90.4733 24.8267 91.9666 24.6L90.2466 25.58C90.26 24.0867 89.9266 22.9867 89.2466 22.28C88.5666 21.5733 87.42 21.22 85.8066 21.22C84.8333 21.22 83.8933 21.4467 82.9866 21.9C82.08 22.3533 81.4466 23.1333 81.0866 24.24L76.6866 22.86C77.22 21.0333 78.2333 19.5667 79.7266 18.46C81.2333 17.3533 83.26 16.8 85.8066 16.8C87.7266 16.8 89.4133 17.1133 90.8666 17.74C92.3333 18.3667 93.42 19.3933 94.1266 20.82C94.5133 21.58 94.7466 22.36 94.8266 23.16C94.9066 23.9467 94.9466 24.8067 94.9466 25.74V39H90.7266V34.32L91.4266 35.08C90.4533 36.64 89.3133 37.7867 88.0066 38.52C86.7133 39.24 85.0933 39.6 83.1466 39.6ZM84.1066 35.76C85.2 35.76 86.1333 35.5667 86.9066 35.18C87.68 34.7933 88.2933 34.32 88.7466 33.76C89.2133 33.2 89.5266 32.6733 89.6866 32.18C89.94 31.5667 90.08 30.8667 90.1066 30.08C90.1466 29.28 90.1666 28.6333 90.1666 28.14L91.6466 28.58C90.1933 28.8067 88.9466 29.0067 87.9066 29.18C86.8666 29.3533 85.9733 29.52 85.2266 29.68C84.48 29.8267 83.82 29.9933 83.2466 30.18C82.6866 30.38 82.2133 30.6133 81.8266 30.88C81.44 31.1467 81.14 31.4533 80.9266 31.8C80.7266 32.1467 80.6266 32.5533 80.6266 33.02C80.6266 33.5533 80.76 34.0267 81.0266 34.44C81.2933 34.84 81.68 35.16 82.1866 35.4C82.7066 35.64 83.3466 35.76 84.1066 35.76ZM100.554 39V9.6H105.374V39H100.554ZM121.184 39.6C118.998 39.6 117.078 39.1267 115.424 38.18C113.771 37.2333 112.478 35.92 111.544 34.24C110.624 32.56 110.164 30.6267 110.164 28.44C110.164 26.08 110.618 24.0333 111.524 22.3C112.431 20.5533 113.691 19.2 115.304 18.24C116.918 17.28 118.784 16.8 120.904 16.8C123.144 16.8 125.044 17.3267 126.604 18.38C128.178 19.42 129.344 20.8933 130.104 22.8C130.864 24.7067 131.151 26.9533 130.964 29.54H126.184V27.78C126.171 25.4333 125.758 23.72 124.944 22.64C124.131 21.56 122.851 21.02 121.104 21.02C119.131 21.02 117.664 21.6333 116.704 22.86C115.744 24.0733 115.264 25.8533 115.264 28.2C115.264 30.3867 115.744 32.08 116.704 33.28C117.664 34.48 119.064 35.08 120.904 35.08C122.091 35.08 123.111 34.82 123.964 34.3C124.831 33.7667 125.498 33 125.964 32L130.724 33.44C129.898 35.3867 128.618 36.9 126.884 37.98C125.164 39.06 123.264 39.6 121.184 39.6ZM113.744 29.54V25.9H128.604V29.54H113.744ZM149.781 39V28.6C149.781 27.92 149.734 27.1667 149.641 26.34C149.548 25.5133 149.328 24.72 148.981 23.96C148.648 23.1867 148.141 22.5533 147.461 22.06C146.794 21.5667 145.888 21.32 144.741 21.32C144.128 21.32 143.521 21.42 142.921 21.62C142.321 21.82 141.774 22.1667 141.281 22.66C140.801 23.14 140.414 23.8067 140.121 24.66C139.828 25.5 139.681 26.58 139.681 27.9L136.821 26.68C136.821 24.84 137.174 23.1733 137.881 21.68C138.601 20.1867 139.654 19 141.041 18.12C142.428 17.2267 144.134 16.78 146.161 16.78C147.761 16.78 149.081 17.0467 150.121 17.58C151.161 18.1133 151.988 18.7933 152.601 19.62C153.214 20.4467 153.668 21.3267 153.961 22.26C154.254 23.1933 154.441 24.08 154.521 24.92C154.614 25.7467 154.661 26.42 154.661 26.94V39H149.781ZM134.801 39V17.4H139.101V24.1H139.681V39H134.801ZM172.54 39C171.113 39.2667 169.713 39.38 168.34 39.34C166.98 39.3133 165.76 39.0667 164.68 38.6C163.6 38.12 162.78 37.3667 162.22 36.34C161.727 35.4067 161.467 34.4533 161.44 33.48C161.413 32.5067 161.4 31.4067 161.4 30.18V11.4H166.2V29.9C166.2 30.7667 166.207 31.5267 166.22 32.18C166.247 32.8333 166.387 33.3667 166.64 33.78C167.12 34.58 167.887 35.0267 168.94 35.12C169.993 35.2133 171.193 35.16 172.54 34.96V39ZM157.48 21.18V17.4H172.54V21.18H157.48ZM185.193 39V10.2H190.013V22.32H203.653V10.2H208.453V39H203.653V26.84H190.013V39H185.193ZM222.16 39.62C220.56 39.62 219.24 39.3533 218.2 38.82C217.16 38.2867 216.333 37.6067 215.72 36.78C215.106 35.9533 214.653 35.0733 214.36 34.14C214.066 33.2067 213.873 32.3267 213.78 31.5C213.7 30.66 213.66 29.98 213.66 29.46V17.4H218.54V27.8C218.54 28.4667 218.586 29.22 218.68 30.06C218.773 30.8867 218.986 31.6867 219.32 32.46C219.666 33.22 220.173 33.8467 220.84 34.34C221.52 34.8333 222.433 35.08 223.58 35.08C224.193 35.08 224.8 34.98 225.4 34.78C226 34.58 226.54 34.24 227.02 33.76C227.513 33.2667 227.906 32.5933 228.2 31.74C228.493 30.8867 228.64 29.8067 228.64 28.5L231.5 29.72C231.5 31.56 231.14 33.2267 230.42 34.72C229.713 36.2133 228.666 37.4067 227.28 38.3C225.893 39.18 224.186 39.62 222.16 39.62ZM229.22 39V32.3H228.64V17.4H233.48V39H229.22ZM249.479 39.6C247.372 39.6 245.605 39.1 244.179 38.1C242.752 37.1 241.679 35.74 240.959 34.02C240.239 32.2867 239.879 30.3467 239.879 28.2C239.879 26.0267 240.239 24.08 240.959 22.36C241.679 20.64 242.732 19.2867 244.119 18.3C245.519 17.3 247.245 16.8 249.299 16.8C251.339 16.8 253.105 17.3 254.599 18.3C256.105 19.2867 257.272 20.64 258.099 22.36C258.925 24.0667 259.339 26.0133 259.339 28.2C259.339 30.36 258.932 32.3 258.119 34.02C257.305 35.74 256.159 37.1 254.679 38.1C253.199 39.1 251.465 39.6 249.479 39.6ZM239.059 39V10.2H243.919V23.84H243.319V39H239.059ZM248.739 35.28C249.992 35.28 251.025 34.9667 251.839 34.34C252.652 33.7133 253.252 32.8667 253.639 31.8C254.039 30.72 254.239 29.52 254.239 28.2C254.239 26.8933 254.039 25.7067 253.639 24.64C253.239 23.56 252.619 22.7067 251.779 22.08C250.939 21.44 249.872 21.12 248.579 21.12C247.352 21.12 246.352 21.42 245.579 22.02C244.805 22.6067 244.232 23.4333 243.859 24.5C243.499 25.5533 243.319 26.7867 243.319 28.2C243.319 29.6 243.499 30.8333 243.859 31.9C244.232 32.9667 244.812 33.8 245.599 34.4C246.399 34.9867 247.445 35.28 248.739 35.28Z" fill="#111827"/>
<defs>
<linearGradient id="paint0_linear_26_4096" x1="13.4731" y1="3" x2="13.4731" y2="45" gradientUnits="userSpaceOnUse">
<stop stop-color="#FFB169"/>
<stop offset="0.47" stop-color="#FF7A00"/>
<stop offset="1" stop-color="#D96A04"/>
</linearGradient>
<linearGradient id="paint1_linear_26_4096" x1="27.5672" y1="9.4375" x2="27.5672" y2="23.9308" gradientUnits="userSpaceOnUse">
<stop stop-color="#01B3FF"/>
<stop offset="1" stop-color="#006DAA"/>
</linearGradient>
<linearGradient id="paint2_linear_26_4096" x1="30.8842" y1="19.2412" x2="30.8842" y2="36.0444" gradientUnits="userSpaceOnUse">
<stop stop-color="#14EA5D"/>
<stop offset="0.475" stop-color="#00FF57"/>
<stop offset="1" stop-color="#00B712"/>
</linearGradient>
</defs>
</svg>
