<?xml version="1.0" encoding="UTF-8"?>
<svg id="Layer_2" data-name="Layer 2" xmlns="http://www.w3.org/2000/svg" xmlns:xlink="http://www.w3.org/1999/xlink" viewBox="0 0 231.6 73.24">
  <defs>
    <style>
      .cls-1 {
        stroke: #00adee;
        stroke-miterlimit: 10;
        stroke-width: .16px;
      }

      .cls-1, .cls-2, .cls-3, .cls-4, .cls-5, .cls-6, .cls-7 {
        fill-rule: evenodd;
      }

      .cls-1, .cls-2, .cls-8 {
        fill: #00adee;
      }

      .cls-3 {
        fill: #fff;
      }

      .cls-9, .cls-6, .cls-7 {
        fill: #2e3191;
      }

      .cls-4 {
        fill: url(#linear-gradient-2);
      }

      .cls-5 {
        fill: url(#linear-gradient);
      }

      .cls-10 {
        fill: #00a1db;
      }

      .cls-11 {
        opacity: .1;
      }

      .cls-12 {
        fill: none;
      }

      .cls-13 {
        fill: #1671d3;
      }

      .cls-7 {
        stroke: #2e3191;
        stroke-linecap: square;
        stroke-miterlimit: 2.61;
        stroke-width: .42px;
      }
    </style>
    <linearGradient id="linear-gradient" x1="52.38" y1="8.87" x2="69.36" y2="31.07" gradientUnits="userSpaceOnUse">
      <stop offset=".2" stop-color="#00adee"/>
      <stop offset=".9" stop-color="#067893"/>
    </linearGradient>
    <linearGradient id="linear-gradient-2" x1="50.3" y1="18.52" x2="22.51" y2="97" gradientUnits="userSpaceOnUse">
      <stop offset=".34" stop-color="#00adee"/>
      <stop offset=".99" stop-color="#067893"/>
    </linearGradient>
  </defs>
  <g id="Layer_1-2" data-name="Layer 1">
    <g>
      <rect class="cls-12" width="231.6" height="73.24"/>
      <g>
        <g>
          <g>
            <path class="cls-6" d="M5.59,1.64l6.87,.06,8.38,6.13H5.86c-3.83,0-3.88-6.2-.27-6.2Z"/>
            <g>
              <polygon class="cls-5" points="39.9 18.23 53.75 18.23 76.77 1.64 16.93 1.64 39.9 18.23"/>
              <polygon class="cls-4" points="85.63 1.64 76.53 1.64 2.38 55.01 33.28 55.01 85.63 17.62 85.63 1.64"/>
              <path class="cls-6" d="M2.78,12.03l24.18,.06,8.41,6.13H3.05c-3.83,0-3.88-6.2-.27-6.2Z"/>
              <path class="cls-6" d="M74.24,71.6l-15.28-.06-5.95-6.13h20.96c3.83,0,3.88,6.2,.27,6.2Z"/>
              <polygon class="cls-2" points="2.38 55.01 38.7 55.01 54.8 71.6 2.38 71.6 2.38 55.01"/>
              <path class="cls-6" d="M81.14,61.21l-32.59-.06-5.95-6.13h38.27c3.83,0,3.88,6.2,.27,6.2Z"/>
            </g>
          </g>
          <g>
            <path class="cls-7" d="M57.72,38.67c-1.25,8.29-8.87,14.06-16.95,12.84-2.27-.34-4.34-1.2-6.11-2.44-2.71-1.89-4.73-4.65-5.75-7.84-.03-.11-.06-.21-.09-.32l2.62-1.91h0s2.57-1.89,2.57-1.89v-.02h-.04s-2.55,1.85-2.55,1.85l-2.63,1.92c-.03-.1-.06-.2-.09-.3l2.66-1.94s0-.04,0-.05l-2.66,1.95c-.53-1.98-.67-4.11-.34-6.27,1.25-8.29,8.87-14.06,16.95-12.85,2.1,.32,4.03,1.08,5.72,2.17,2.76,1.79,4.86,4.48,5.97,7.61,.83,2.32,1.11,4.88,.72,7.49Z"/>
            <path class="cls-3" d="M54.75,38.23c-.58,3.8-2.82,6.93-5.85,8.72-.37,.22-.74,.41-1.12,.59-.82,.38-1.69,.66-2.58,.84-1.28,.26-2.62,.3-3.97,.09-.95-.14-1.85-.4-2.69-.75-.06-.02-.13-.05-.19-.08h0c-.19-.08-.39-.17-.57-.26-.47-.24-.92-.51-1.35-.8-.04-.03-.08-.06-.12-.09l-.22-.16s-.08-.06-.11-.09c-.16-.12-.32-.25-.48-.38l-.11-.09c-.07-.06-.13-.12-.2-.18-.04-.03-.08-.06-.11-.1-.19-.18-.38-.36-.55-.55-.75-.79-1.39-1.67-1.9-2.63-.05-.09-.09-.18-.14-.27,0-.01,0-.03-.02-.04-.12-.24-.23-.49-.34-.75,0-.02-.02-.04-.02-.06-.02-.04-.03-.08-.04-.11-.18-.47-.34-.95-.47-1.43,0-.02,0-.03-.01-.05-.05-.19-.1-.39-.14-.58,0-.02,0-.04,0-.06-.02-.08-.03-.17-.05-.25,0-.02,0-.05-.01-.08,0-.02,0-.04,0-.05-.02-.12-.04-.24-.05-.36h0c-.08-.55-.12-1.1-.11-1.66h0c0-.34,.01-.69,.04-1.03,.02-.28,.06-.55,.1-.83,1-6.62,7.07-11.22,13.52-10.24,1.98,.3,3.77,1.09,5.27,2.23,.09,.06,.17,.13,.26,.2,.19,.15,.39,.32,.57,.49,.05,.04,.1,.09,.14,.13l.17,.16s.09,.09,.14,.14c.07,.07,.14,.15,.21,.22,.02,.01,.02,.02,.03,.03,.07,.07,.14,.15,.2,.22,.01,.01,.02,.02,.03,.03,.26,.29,.5,.6,.73,.92,0,.01,.02,.02,.02,.03,.31,.43,.59,.89,.84,1.37,0,.02,.02,.03,.02,.04,.05,.09,.1,.18,.14,.27h0s.01,.02,.02,.04c.13,.26,.24,.53,.35,.79,.02,.06,.05,.12,.07,.18,.37,.95,.62,1.96,.73,3v.05c.02,.15,.04,.3,.05,.45v.05c.06,.88,.03,1.79-.11,2.71Z"/>
            <g>
              <g>
                <g class="cls-11">
                  <polygon class="cls-10" points="35.02 35.43 33.94 36.17 34.02 37.09 34 37.09 34 37.1 33.97 37.1 33.97 37.09 33.89 36.15 33.9 36.14 35 35.4 35.08 35.34 35.11 35.37 35.02 35.43"/>
                  <polygon class="cls-10" points="33.52 37 33.44 36.14 33.46 36.13 37.16 33.6 37.19 33.64 33.49 36.16 33.57 36.99 33.52 37"/>
                  <path class="cls-10" d="M35.2,35.4c-.02,.06-.09,.08-.14,.06s-.08-.09-.06-.14,.09-.08,.14-.06,.08,.09,.06,.14Z"/>
                  <path class="cls-10" d="M37.27,33.66c-.02,.06-.09,.08-.14,.06s-.08-.09-.06-.14,.09-.08,.14-.06,.08,.09,.06,.14Z"/>
                  <path class="cls-10" d="M35.4,36.57c-.02,.06-.09,.08-.14,.06s-.08-.09-.06-.14,.09-.08,.14-.06,.08,.09,.06,.14Z"/>
                  <path class="cls-10" d="M31.88,39.14c-.02,.06-.09,.08-.14,.06s-.08-.09-.06-.14,.09-.08,.14-.06,.08,.09,.06,.14Z"/>
                  <path class="cls-10" d="M30.77,40.32c-.02,.06-.09,.08-.14,.06s-.08-.09-.06-.14,.09-.08,.14-.06,.08,.09,.06,.14Z"/>
                  <polygon class="cls-10" points="30.69 40.29 30.66 40.26 35.92 36.4 35.95 36.44 30.69 40.29"/>
                  <polygon class="cls-10" points="31.8 39.12 31.77 39.08 35.29 36.51 35.31 36.54 31.8 39.12"/>
                  <g>
                    <path class="cls-10" d="M28.8,40.89v-.02s0,0,0,0c0,0,0,.02,0,.02Z"/>
                    <path class="cls-10" d="M28.81,40.92h0s0-.01,0-.01c0,0,0,0,0,.01Z"/>
                    <polygon class="cls-10" points="34 37.09 34 37.1 33.97 37.1 33.97 37.09 33.99 37.08 34 37.09"/>
                  </g>
                  <path class="cls-10" d="M33.56,37.02l-2.19,1.61s0-.04,0-.05l2.17-1.59h0s.02,.01,.02,.01v.02Z"/>
                  <path class="cls-10" d="M34,37.09l-2.56,1.9s0-.04,0-.06l2.53-1.88h0s.02,.01,.02,.01v.02Z"/>
                </g>
                <g class="cls-11">
                  <polygon class="cls-10" points="45.41 43.04 45.39 43 49.01 40.45 48.91 39.29 48.96 39.29 49.06 40.47 49.05 40.48 45.41 43.04"/>
                  <polygon class="cls-10" points="47.15 42.18 47.13 42.14 49.58 40.46 49.48 39.41 49.52 39.41 49.62 40.49 49.61 40.49 47.15 42.18"/>
                  <path class="cls-10" d="M45.28,42.96c.03-.07,.11-.1,.18-.07s.1,.11,.07,.18-.11,.1-.18,.07-.1-.11-.07-.18Z"/>
                  <path class="cls-10" d="M47.01,42.1c.03-.07,.11-.1,.18-.07s.1,.11,.07,.18-.11,.1-.18,.07-.1-.11-.07-.18Z"/>
                  <path class="cls-10" d="M47.17,39.95c.03-.07,.11-.1,.18-.07s.1,.11,.07,.18-.11,.1-.18,.07-.1-.11-.07-.18Z"/>
                  <path class="cls-10" d="M51.59,36.71c.03-.07,.11-.1,.18-.07s.1,.11,.07,.18-.11,.1-.18,.07-.1-.11-.07-.18Z"/>
                  <path class="cls-10" d="M52.99,35.23c.03-.07,.11-.1,.18-.07s.1,.11,.07,.18-.11,.1-.18,.07-.1-.11-.07-.18Z"/>
                  <polygon class="cls-10" points="46.51 40.15 46.48 40.11 53.1 35.27 53.12 35.31 46.51 40.15"/>
                  <polygon class="cls-10" points="47.31 40.02 47.28 39.99 51.71 36.75 51.73 36.79 47.31 40.02"/>
                  <polygon class="cls-10" points="54.81 35.01 48.96 39.3 48.95 39.31 48.93 39.29 48.92 39.27 54.81 34.96 54.81 35.01"/>
                  <polygon class="cls-10" points="54.86 35.52 49.53 39.42 49.51 39.43 49.5 39.41 49.49 39.39 54.85 35.46 54.86 35.52"/>
                </g>
                <path class="cls-8" d="M46.47,35.04h0s0-.02,0-.02l-.1-.94h0s-.9-.41-.9-.41h-.04s-2.56-1.14-2.56-1.14h-.01s-3.1,2.26-3.1,2.26l.31,2.85v.03s.11,.93,.11,.93h0s.91,.41,.91,.41h.02s2.57,1.14,2.57,1.14h.01s3.1-2.26,3.1-2.26l-.31-2.85Zm-2.8,5.06l-3.47-1.53-.41-3.77,3.06-2.24,3.47,1.53,.41,3.77-3.06,2.24Z"/>
                <path class="cls-10" d="M46.09,34.27l-3.2-1.42-2.83,2.07,.38,3.48,3.2,1.42,2.83-2.07-.38-3.48Zm-2.47,5.34l-3.01-1.33-.36-3.27,2.65-1.94,3.01,1.33,.35,3.27-2.65,1.94Z"/>
                <g>
                  <polygon class="cls-8" points="38.09 38.31 38 37.36 38.02 37.36 39.2 36.55 39.22 36.59 38.05 37.39 38.13 38.31 38.09 38.31"/>
                  <polygon class="cls-8" points="37.64 38.21 37.56 37.35 37.57 37.35 39.53 36.01 39.55 36.04 37.61 37.38 37.68 38.21 37.64 38.21"/>
                  <path class="cls-8" d="M39.31,36.61c-.02,.06-.09,.08-.14,.06s-.08-.09-.06-.14,.09-.08,.14-.06,.08,.09,.06,.14Z"/>
                  <path class="cls-8" d="M39.64,36.07c-.02,.06-.09,.08-.14,.06s-.08-.09-.06-.14,.09-.08,.14-.06,.08,.09,.06,.14Z"/>
                  <path class="cls-8" d="M39.51,37.78c-.02,.06-.09,.08-.14,.06s-.08-.09-.06-.14,.09-.08,.14-.06,.08,.09,.06,.14Z"/>
                  <path class="cls-8" d="M36,40.36c-.02,.06-.09,.08-.14,.06s-.08-.09-.06-.14,.09-.08,.14-.06,.08,.09,.06,.14Z"/>
                  <path class="cls-8" d="M34.89,41.53c-.02,.06-.09,.08-.14,.06s-.08-.09-.06-.14,.09-.08,.14-.06,.08,.09,.06,.14Z"/>
                  <polygon class="cls-8" points="34.8 41.51 34.78 41.47 40.04 37.62 40.07 37.65 34.8 41.51"/>
                  <polygon class="cls-8" points="35.91 40.33 35.88 40.29 39.4 37.72 39.43 37.76 35.91 40.33"/>
                  <polygon class="cls-8" points="32.86 42.18 32.84 42.14 38.1 38.29 38.13 38.33 32.86 42.18"/>
                  <polygon class="cls-8" points="32.41 42.08 32.39 42.04 37.65 38.19 37.67 38.23 32.41 42.08"/>
                </g>
                <g>
                  <polygon class="cls-8" points="40.71 41.05 39.84 40.67 39.86 40.63 40.71 41 41.83 40.13 41.86 40.17 40.71 41.05"/>
                  <polygon class="cls-8" points="40.58 41.48 39.79 41.13 39.81 41.09 40.58 41.42 42.45 39.99 42.48 40.02 40.58 41.48"/>
                  <path class="cls-8" d="M41.83,40.04c-.06,0-.1,.06-.1,.12,0,.06,.06,.1,.12,.1s.1-.06,.1-.12c0-.06-.06-.1-.12-.1Z"/>
                  <path class="cls-8" d="M42.45,39.9c-.06,0-.1,.06-.1,.12,0,.06,.06,.1,.12,.1s.1-.06,.1-.12c0-.06-.06-.1-.12-.1Z"/>
                  <path class="cls-8" d="M40.78,39.48c-.06,0-.1,.06-.1,.12,0,.06,.06,.1,.12,.1,.06,0,.1-.06,.1-.12,0-.06-.06-.1-.12-.1Z"/>
                  <path class="cls-8" d="M37.24,42.03c-.06,0-.1,.06-.1,.12,0,.06,.06,.1,.12,.1,.06,0,.1-.06,.1-.12,0-.06-.06-.1-.12-.1Z"/>
                  <path class="cls-8" d="M35.78,42.71c-.06,0-.1,.06-.1,.12,0,.06,.06,.1,.12,.1,.06,0,.1-.06,.1-.12,0-.06-.06-.1-.12-.1Z"/>
                  <rect class="cls-8" x="35.18" y="40.9" width="6.52" height=".05" transform="translate(-16.65 30.1) rotate(-35.67)"/>
                  <rect class="cls-8" x="36.85" y="40.84" width="4.36" height=".05" transform="translate(-16.51 30.43) rotate(-35.67)"/>
                  <rect class="cls-8" x="33.94" y="42.53" width="6.52" height=".05" transform="translate(-17.84 29.68) rotate(-35.67)"/>
                  <rect class="cls-8" x="33.89" y="42.99" width="6.52" height=".05" transform="translate(-18.11 29.74) rotate(-35.67)"/>
                </g>
                <g>
                  <polygon class="cls-8" points="47.32 36.13 47.29 36.09 48.47 35.29 48.38 34.37 48.43 34.37 48.51 35.31 48.5 35.32 47.32 36.13"/>
                  <polygon class="cls-8" points="46.99 36.67 46.96 36.63 48.91 35.3 48.83 34.47 48.88 34.46 48.96 35.32 48.95 35.33 46.99 36.67"/>
                  <path class="cls-8" d="M47.21,36.07c.02-.06,.09-.08,.14-.06s.08,.09,.06,.14-.09,.08-.14,.06-.08-.09-.06-.14Z"/>
                  <path class="cls-8" d="M46.88,36.61c.02-.06,.09-.08,.14-.06s.08,.09,.06,.14-.09,.08-.14,.06-.08-.09-.06-.14Z"/>
                  <path class="cls-8" d="M47,34.89c.02-.06,.09-.08,.14-.06s.08,.09,.06,.14-.09,.08-.14,.06-.08-.09-.06-.14Z"/>
                  <path class="cls-8" d="M50.52,32.32c.02-.06,.09-.08,.14-.06s.08,.09,.06,.14-.09,.08-.14,.06-.08-.09-.06-.14Z"/>
                  <path class="cls-8" d="M51.63,31.14c.02-.06,.09-.08,.14-.06s.08,.09,.06,.14-.09,.08-.14,.06-.08-.09-.06-.14Z"/>
                  <polygon class="cls-8" points="46.48 35.06 46.45 35.02 51.72 31.17 51.74 31.21 46.48 35.06"/>
                  <polygon class="cls-8" points="47.12 34.96 47.09 34.92 50.61 32.35 50.64 32.38 47.12 34.96"/>
                  <polygon class="cls-8" points="53.47 30.63 53.47 30.63 48.39 34.35 48.41 34.37 48.42 34.39 48.43 34.38 53.49 30.68 53.5 30.67 53.47 30.63"/>
                  <polygon class="cls-8" points="53.63 30.94 53.63 30.95 48.84 34.45 48.86 34.47 48.87 34.49 48.88 34.48 53.65 30.99 53.65 30.98 53.63 30.94"/>
                </g>
                <polygon class="cls-8" points="44.69 32.55 44.66 32.51 45.8 31.63 46.68 32 46.66 32.04 45.81 31.68 44.69 32.55"/>
                <polygon class="cls-8" points="44.07 32.69 44.04 32.65 45.93 31.2 46.72 31.54 46.71 31.59 45.94 31.25 44.07 32.69"/>
                <path class="cls-10" d="M44.68,32.64c.06,0,.1-.06,.1-.12,0-.06-.06-.1-.12-.1-.06,0-.1,.06-.1,.12,0,.06,.06,.1,.12,.1Z"/>
                <path class="cls-10" d="M44.07,32.78c.06,0,.1-.06,.1-.12,0-.06-.06-.1-.12-.1s-.1,.06-.1,.12c0,.06,.06,.1,.12,.1Z"/>
                <path class="cls-10" d="M41.14,33.37c.06,0,.1-.06,.1-.12,0-.06-.06-.1-.12-.1-.06,0-.1,.06-.1,.12,0,.06,.06,.1,.12,.1Z"/>
                <path class="cls-10" d="M45.73,33.19c.06,0,.1-.06,.1-.12,0-.06-.06-.1-.12-.1-.06,0-.1,.06-.1,.12,0,.06,.06,.1,.12,.1Z"/>
                <path class="cls-8" d="M49.27,30.65c.06,0,.1-.06,.1-.12,0-.06-.06-.1-.12-.1-.06,0-.1,.06-.1,.12,0,.06,.06,.1,.12,.1Z"/>
                <path class="cls-8" d="M50.74,29.96c.06,0,.1-.06,.1-.12,0-.06-.06-.1-.12-.1-.06,0-.1,.06-.1,.12,0,.06,.06,.1,.12,.1Z"/>
                <rect class="cls-8" x="44.81" y="31.73" width="6.52" height=".05" transform="translate(-9.5 34) rotate(-35.67)"/>
                <rect class="cls-8" x="45.31" y="31.79" width="4.36" height=".05" transform="translate(-9.64 33.67) rotate(-35.67)"/>
                <polygon class="cls-8" points="51.88 28.31 51.87 28.31 46.68 32.04 46.67 32.02 46.66 32.01 46.67 32 51.84 28.28 51.85 28.28 51.88 28.31"/>
                <polygon class="cls-8" points="51.65 28.05 51.64 28.06 46.73 31.58 46.72 31.56 46.7 31.55 46.71 31.54 51.61 28.02 51.62 28.02 51.65 28.05"/>
                <polygon class="cls-8" points="39.85 34.23 39.83 34.19 42.2 32.45 42.23 32.49 39.85 34.23"/>
                <path class="cls-10" d="M45.47,39.43c.06,0,.1-.06,.1-.12,0-.06-.06-.1-.12-.1-.06,0-.1,.06-.1,.12,0,.06,.06,.1,.12,.1Z"/>
                <polygon class="cls-10" points="44.18 40.28 44.16 40.25 46.53 38.51 46.56 38.55 44.18 40.28"/>
                <g>
                  <polygon class="cls-8" points="54.01 31.78 54 31.79 49.9 34.77 49.82 36.65 49.81 36.86 46.06 39.76 46.06 39.77 46.17 39.91 46.18 39.9 49.99 36.95 50.01 36.5 50.08 34.87 54.07 31.96 54.08 31.96 54.01 31.78"/>
                  <path class="cls-8" d="M46.18,39.91c-.02-.06-.06-.11-.12-.14h0s-.02-.02-.04-.03c-.08-.03-.17-.04-.24,0-.08,.03-.14,.09-.18,.17-.03,.08-.04,.16,0,.24,.03,.08,.09,.14,.17,.17,.02,0,.03,.01,.04,.02,.07,.02,.14,.02,.2,0,.08-.03,.14-.09,.18-.17,.04-.08,.03-.17,0-.25Zm-.17,.17c-.03,.07-.11,.1-.17,.07-.07-.03-.1-.11-.07-.18,.02-.06,.09-.09,.16-.07,0,0,.01,0,.02,0,.07,.03,.1,.11,.07,.18Z"/>
                </g>
                <g>
                  <polygon class="cls-8" points="31.43 41.75 31.32 41.6 36.49 37.83 36.59 35.75 40.4 32.79 40.52 32.93 36.76 35.84 36.67 37.93 31.43 41.75"/>
                  <path class="cls-8" d="M40.98,32.55c-.03-.08-.09-.14-.17-.17-.16-.07-.34,0-.42,.16-.04,.09-.03,.17,0,.25,.02,.06,.06,.11,.12,.14,.01,.01,.02,.02,.04,.02,.01,0,.03,.01,.04,.02,.07,.02,.14,.02,.2,0,.08-.03,.14-.09,.17-.17,.04-.08,.04-.16,0-.24Zm-.17,.17c-.03,.07-.11,.1-.18,.07-.06-.03-.1-.11-.07-.18,.03-.06,.1-.09,.16-.07,0,0,.01,0,.02,0,.07,.03,.1,.11,.07,.18Z"/>
                </g>
                <path class="cls-10" d="M42.69,31.53h.05s0-.07,0-.07h-.05s0-.01,0-.02l.05-.02-.02-.06-.04,.02s0-.02-.01-.03l.04-.02-.03-.05-.04,.02s0-.02-.02-.02l.04-.03-.04-.04-.04,.03s-.01-.01-.02-.02l.03-.04-.05-.04-.03,.04s-.02-.01-.03-.02l.02-.04-.05-.02-.02,.04s-.02,0-.03,0v-.05s-.05-.01-.05-.01v.05s-.03,0-.04,0v-.05h-.06v.05s-.02,0-.03,0v-.05s-.07,.01-.07,.01v.05s0,0-.02,0l-.02-.04-.05,.02,.02,.05s-.02,0-.02,.01l-.03-.04-.05,.04,.03,.04s-.02,.01-.02,.02l-.04-.03-.04,.04,.04,.03s-.01,.02-.02,.02l-.04-.02-.03,.05,.04,.02s0,0,0,.01c0,0,0,0,0,.01h-.05s-.02,.04-.02,.04l.05,.02s0,.02,0,.03h-.05s0,.05,0,.05h.05v.04h-.05s0,.06,0,.06h.05s0,.01,0,.02l-.04,.02,.02,.06,.05-.02s0,.02,.01,.02l-.04,.02,.03,.05,.04-.02s0,.02,.02,.02l-.04,.03,.04,.04,.04-.03s.01,.01,.02,.02l-.03,.04,.05,.04,.03-.04s.02,0,.02,.01l-.02,.04,.05,.02,.02-.04s.02,0,.03,0v.05s.05,.01,.05,.01v-.05s.03,0,.04,0v.05h.06v-.05s.02,0,.03,0v.05s.07-.01,.07-.01v-.05s0,0,.02,0l.02,.04,.06-.02-.02-.04s.02-.01,.02-.02l.03,.04,.05-.04-.03-.04s.02-.01,.02-.02l.04,.03,.04-.04-.04-.04s0-.01,.02-.02l.04,.02,.03-.05-.04-.02s0-.01,0-.02c0,0,0,0,0-.01l.05,.02,.02-.06-.04-.02s0-.02,0-.03h.05s0-.06,0-.06h-.05v-.03Zm-.1,.16c-.08,.18-.3,.26-.48,.19-.18-.08-.27-.3-.19-.48,.08-.19,.3-.27,.48-.19s.27,.3,.19,.48Z"/>
                <path class="cls-10" d="M43.1,40.7h.03v-.04s-.03,0-.03,0c0,0,0-.01,0-.02h.03s-.01-.04-.01-.04h-.03s0,0,0,0l.03-.02-.02-.03h-.02s0,0,0,0l.02-.02-.02-.02-.02,.02s0,0-.01,0l.02-.02-.03-.02-.02,.02s-.01,0-.02-.01v-.02s-.02-.02-.02-.02v.03s-.02,0-.03,0v-.03s-.03,0-.03,0v.03s-.02,0-.02,0v-.03h-.03v.03h-.02v-.03s-.04,0-.04,0v.03s0,0-.01,0v-.02s-.04,.01-.04,.01v.03s0,0,0,0l-.02-.02-.03,.02,.02,.02s-.01,0-.02,.01l-.02-.02-.02,.02,.02,.02s0,0-.01,.02l-.02-.02-.02,.03h.02s0,.02,0,.02,0,0,0,0h-.03s0,.02,0,.02h.03s0,.02,0,.02h-.03v.03s.02,0,.02,0v.02h-.03s0,.04,0,.04h.03s0,0,0,.02h-.03s.01,.04,.01,.04h.02s0,0,0,0h-.02s.02,.04,.02,.04l.03-.02s0,.01,0,.02l-.02,.02,.02,.03,.02-.02s0,0,.01,.01l-.02,.02,.03,.02,.02-.02s0,0,.02,0v.03s.02,.01,.02,.01v-.02s.02,0,.02,0v.03s.03,0,.03,0v-.03h.02v.03h.04v-.03h.02v.02s.04,0,.04,0v-.03s0,0,0,0v.03s.04-.02,.04-.02v-.02s0,0,0,0l.02,.02,.03-.02-.02-.02h.01s.02,0,.02,0l.02-.03-.02-.02s0,0,0-.01h.02s.02-.02,.02-.02l-.02-.02h0s0-.01,0-.01h.03s.01-.03,.01-.03h-.03s0-.02,0-.02h.03s0-.03,0-.03h-.03v-.02Zm-.06,.1c-.05,.11-.17,.15-.28,.11-.11-.04-.15-.17-.11-.28,.04-.11,.17-.15,.28-.11,.11,.05,.15,.17,.11,.28Z"/>
                <path class="cls-8" d="M47,30.56h-.02s-.02-.02-.02-.03c0,0,0,0,0,0,0-.01,0-.03,.02-.03h.02s.02-.04,.02-.05l-.02-.04s-.02-.02-.04-.02h-.02s-.02,.02-.03,0c0,0-.01-.01-.02-.02-.01-.01-.01-.02,0-.04v-.02s0-.03,0-.04l-.05-.02s-.03,0-.04,.02v.02s-.03,.02-.04,.02c0,0,0,0,0,0-.02,0-.02,0-.03-.02v-.02s-.02-.02-.04-.02h-.05s-.02,.03-.02,.04v.02s0,.02-.01,.03h0s-.02,0-.04,0l-.02-.02s-.03,0-.04,0l-.04,.03s0,.03,0,.04l.02,.02s.01,.02,0,.03c0,0,0,0,0,.01,0,0,0,0,0,.01h-.05s-.03,0-.03,.02v.05s0,.03,.02,.03h.02s.02,.02,.02,.03h0s0,.03-.02,.04h-.02s-.02,.04-.01,.05l.02,.04s.02,.02,.04,.02h.02s.02-.02,.04,0l.02,.02s.01,.02,0,.03v.02s-.01,.03,0,.04l.04,.02s.03,0,.04-.02v-.02s.02-.02,.04-.02h0s.02,0,.02,.02v.02s.02,.03,.04,.02h.05s.02-.03,.02-.04v-.02s0-.02,0-.03h0s.02,0,.03,0l.02,.02s.03,0,.04,0l.03-.04s.01-.03,0-.04l-.02-.02s-.01-.02,0-.04c0,0,0,0,0-.01,0,0,0,0,0-.01h.04s.03,0,.03-.02v-.05s0-.03-.02-.03Zm-.13,.09c-.04,.09-.15,.14-.25,.1-.09-.04-.14-.15-.09-.25,.04-.09,.15-.14,.25-.09,.1,.04,.14,.15,.1,.25Z"/>
                <path class="cls-10" d="M44.46,40.78h-.01s-.02-.01-.02-.02h0s0-.02,0-.02h.02s.01-.02,0-.03l-.02-.03s-.01-.01-.02,0h-.01s-.02,0-.02,0c0,0,0,0-.01-.01,0,0,0-.02,0-.02v-.02s0-.02,0-.02h-.03s-.02-.01-.02,0h0s0,.02-.02,.02h0s-.02,0-.02-.02v-.02s-.02-.02-.02-.01h-.03s-.02,.02-.02,.03h0s0,.03-.01,.03c0,0,0,0-.01,0s0,0-.01,0h0s-.02-.02-.03-.01l-.02,.02s0,.02,0,.02h.01s0,.02,0,.03t0,0s0,0,0,0h-.03s-.02,0-.02,0v.03s0,.02,.01,.02h.01s.02,0,.02,.02h0s0,.02,0,.02h-.02s-.01,.02,0,.03l.02,.02s.01,.01,.02,0h.01s.02,0,.02,0c0,0,0,0,.01,.01,0,0,0,.01,0,.02h0s0,.03,0,.04h.03s.02,.01,.02,0h0s0-.02,.02-.02h0s.02,0,.02,.02h0s.01,.03,.02,.03h.03s.02-.02,.02-.03h0s0-.03,.01-.03h0s.02,0,.02,0h0s.02,.02,.03,0l.02-.02s0-.02,0-.03h-.01s0-.02,0-.03c0,0,0,0,0,0,0,0,0,0,0,0h.03s.02,0,.02-.01v-.03s0-.02-.01-.02Zm-.08,.05c-.02,.06-.09,.09-.15,.06-.06-.02-.09-.09-.06-.15,.02-.06,.09-.09,.15-.06,.06,.03,.09,.1,.06,.15Z"/>
                <path class="cls-8" d="M50.64,30.74h-.02s-.01,0-.01-.02h0s0-.02,0-.02h.01s.01-.02,0-.03v-.03s-.03-.01-.04,0h-.01s-.02,0-.02,0c0,0,0-.01-.01-.02s0-.01,0-.02h0s0-.03-.01-.04h-.03s-.02-.01-.02,0v.02s-.02,0-.02,0h0s-.01,0-.02-.01v-.02s-.01-.02-.02-.01h-.03s-.02,.02-.01,.02v.02s0,.02,0,.02h0s-.02,0-.02,0h-.01s-.02-.02-.02,0l-.02,.02s0,.02,0,.02h0s0,.02,0,.03c0,0,0,0,0,0h0s-.03,0-.03,0c-.01,0-.02,0-.02,.02v.03s0,.02,0,.02h.02s.01,0,.01,.02c0,0,0,0,0,0,0,0,0,.02-.01,.02h-.01s-.01,.02,0,.03v.03s.03,.01,.04,0h.01s.02,0,.02,0c0,0,0,0,.01,.01,0,0,0,.01,0,.02h0s0,.03,0,.04h.03s.02,.01,.02,0v-.02s.02,0,.02,0h0s.01,0,.02,.01v.02s.01,.02,.02,.01h.03s.02-.02,.02-.02v-.02s0-.02,0-.02h0s.02,0,.02,0h.01s.02,.02,.02,0l.02-.02s0-.02,0-.03h0s0-.02,0-.03c0,0,0,0,0,0h0s.03,0,.03,0c.01,0,.02,0,.02-.02v-.03s0-.02-.01-.02Zm-.08,.05c-.03,.06-.1,.09-.15,.06-.06-.03-.09-.1-.06-.15,.03-.06,.1-.09,.15-.06,.06,.03,.09,.1,.06,.15Z"/>
                <g>
                  <path class="cls-13" d="M43.41,37.71c-.19-.14-.33-.35-.34-.37,0,0,0-.01,0-.02,0,0,.01,0,.02,0,0,0,.28,.45,.61,.47,.32,.02,.56-.31,.56-.32,0,0,0,0,.01,0,0,0,.07,0,.21-.07,.14-.08,.16-.26,.16-.26,0,0,0,0,0,0,.2-.16,.14-.34,.14-.34,0,0,0,0,0-.01,.14-.19,.03-.38,.03-.39,0,0,0,0,0,0,.09-.29-.12-.42-.13-.42,0,0,0,0,0-.01,.05-.39-.27-.54-.28-.54,0,0,0,0,0-.01,.03-.21-.16-.25-.17-.25,0,0,0,0,0,0-.14-.41-.51-.37-.53-.36,0,0,0,0,0,0-.46-.46-.87-.16-.88-.15,0,0,0,0-.01,0-.31-.19-.51,.06-.51,.06,0,0,0,0-.01,0-.18-.05-.23,.11-.23,.12,0,0,0,0,0,0,0,0-.22,.03-.33,.25-.11,.22,.02,.38,.03,.39,0,0,0,0,0,0,0,.11,.01,.2,.07,.26,.09,.11,.24,.12,.24,.12,0,0,0,0,0,0,0,0,0,0,0,0-.03,.11,.1,.17,.11,.17,0,0,0,0,0,.01-.1,.29,.19,.41,.2,.41,0,0,0,0,0,0,.03,.14,.09,.24,.17,.29,.11,.06,.22,.03,.22,.03,0,0,.01,0,.01,0,0,0,0,.01,0,.01,0,0-.12,.03-.24-.04-.09-.05-.15-.16-.18-.3-.04-.02-.31-.15-.22-.43-.03-.02-.14-.07-.11-.18-.04,0-.16-.03-.24-.13-.06-.07-.08-.16-.08-.27-.02-.03-.13-.19-.03-.41,.11-.21,.3-.25,.34-.26,.01-.03,.08-.17,.25-.13,.03-.04,.24-.25,.53-.07,.06-.04,.47-.29,.9,.15,.05,0,.41-.02,.55,.37,.04,0,.21,.06,.18,.27,.05,.03,.32,.19,.28,.56,.04,.03,.22,.16,.14,.44,.02,.03,.11,.22-.03,.4,0,.03,.04,.21-.14,.36,0,.03-.03,.19-.17,.27-.13,.07-.2,.08-.22,.08-.03,.04-.27,.34-.58,.32-.1,0-.2-.05-.29-.12Z"/>
                  <g>
                    <rect class="cls-13" x="43" y="35.69" width=".58" height=".58" transform="translate(29.23 -18.53) rotate(35.81)"/>
                    <rect class="cls-13" x="43.08" y="35.5" width=".03" height=".69" transform="translate(29.11 -18.44) rotate(35.81)"/>
                    <rect class="cls-13" x="43.15" y="35.54" width=".03" height=".69" transform="translate(29.15 -18.47) rotate(35.81)"/>
                    <rect class="cls-13" x="43.21" y="35.59" width=".03" height=".69" transform="translate(29.19 -18.5) rotate(35.81)"/>
                    <rect class="cls-13" x="43.27" y="35.63" width=".03" height=".69" transform="translate(29.23 -18.53) rotate(35.81)"/>
                    <rect class="cls-13" x="43.34" y="35.68" width=".03" height=".69" transform="translate(29.27 -18.56) rotate(35.81)"/>
                    <rect class="cls-13" x="43.4" y="35.73" width=".03" height=".69" transform="translate(29.31 -18.58) rotate(35.81)"/>
                    <rect class="cls-13" x="43.46" y="35.77" width=".03" height=".69" transform="translate(29.35 -18.61) rotate(35.81)"/>
                    <rect class="cls-13" x="43.14" y="35.83" width=".03" height=".69" transform="translate(-11.43 50.01) rotate(-54.19)"/>
                    <rect class="cls-13" x="43.18" y="35.76" width=".03" height=".69" transform="translate(-11.36 50.02) rotate(-54.19)"/>
                    <rect class="cls-13" x="43.23" y="35.7" width=".03" height=".69" transform="translate(-11.29 50.03) rotate(-54.19)"/>
                    <rect class="cls-13" x="43.27" y="35.63" width=".03" height=".69" transform="translate(-11.22 50.04) rotate(-54.19)"/>
                    <rect class="cls-13" x="43.32" y="35.57" width=".03" height=".69" transform="translate(-11.14 50.05) rotate(-54.19)"/>
                    <rect class="cls-13" x="43.37" y="35.51" width=".03" height=".69" transform="translate(-11.07 50.06) rotate(-54.19)"/>
                    <rect class="cls-13" x="43.41" y="35.44" width=".03" height=".69" transform="translate(-11 50.07) rotate(-54.19)"/>
                  </g>
                  <path class="cls-13" d="M43.2,35.64l-.26-.19s0,0,0,0l-.16-.81s0-.01,0-.01c0,0,.01,0,.01,0l.15,.81,.26,.18s0,.01,0,.02-.01,0-.02,0Z"/>
                  <path class="cls-13" d="M43.15,35.7l-.35-.25s0,0,0,0l-.15-.87s0-.01,0-.01c0,0,.01,0,.01,0l.15,.86,.35,.25s0,.01,0,.02-.01,0-.02,0Z"/>
                  <path class="cls-13" d="M44.26,37.51s0,0,0,0l-.43-1.12-.3-.22s0-.01,0-.02,.01,0,.02,0l.3,.22s0,0,0,0l.43,1.12s0,.01,0,.01c0,0,0,0-.01,0Z"/>
                  <path class="cls-13" d="M43.01,35.88l-.66-.48s0,0,0,0l-.09-.7s0-.01,0-.01c0,0,.01,0,.01,0l.09,.7,.66,.48s0,.01,0,.02-.01,0-.02,0Z"/>
                  <path class="cls-13" d="M42.96,35.95l-.89-.64s0,0,0,0l-.06-.48s0-.01,.01-.01c0,0,.01,0,.01,.01l.06,.47,.89,.64s0,.01,0,.02-.01,0-.02,0Z"/>
                  <path class="cls-13" d="M42.73,35.05l-.26-.19s0-.01,0-.02,.01,0,.02,0l.26,.19s0,.01,0,.02-.01,0-.02,0Z"/>
                  <path class="cls-13" d="M42.34,35.4s0,0,0,0c0,0,0-.01,0-.02l.2-.25s.01,0,.02,0c0,0,0,.01,0,.02l-.2,.25s-.01,0-.02,0Z"/>
                  <path class="cls-13" d="M42.47,34.78s-.06-.01-.07,.01c-.02,.02-.01,.06,.01,.07,.02,.02,.05,.01,.06,0h0s0-.01,0-.02c.01-.02,0-.05-.02-.06Zm0,.06s-.02,.01-.04,0c-.01,0-.01-.03,0-.04,0-.01,.03-.02,.04,0,.01,0,.02,.02,0,.04Z"/>
                  <path class="cls-13" d="M43.49,35.3l-.26-.19s0-.01,0-.02,.01,0,.02,0l.26,.19s0,.01,0,.02-.01,0-.02,0Z"/>
                  <path class="cls-13" d="M43.23,35.03s-.06-.01-.07,.01c-.02,.02-.01,.05,.01,.07,.02,.01,.04,.01,.06,0h0s0,0,0,0c0,0,0,0,0-.01,0-.02,0-.04-.02-.06Zm0,.06s-.03,.02-.04,0c-.01-.01-.02-.03,0-.04,0-.01,.02-.02,.04,0,.02,.01,.02,.03,0,.04Z"/>
                  <path class="cls-13" d="M44.01,35.93l-.26-.19s0-.01,0-.02,.01,0,.02,0l.26,.19s0,.01,0,.02-.01,0-.02,0Z"/>
                  <path class="cls-13" d="M44.08,35.91s-.05-.01-.06,0h0s0,.02,0,.02c-.01,.02,0,.05,.02,.06,.02,.02,.06,.01,.07-.01,.02-.02,.01-.05-.01-.07Zm0,.06s-.02,.02-.04,0c-.01-.01-.01-.03,0-.04,0-.01,.03-.02,.04,0,.01,0,.02,.03,0,.04Z"/>
                  <path class="cls-13" d="M43.71,36.96l-.26-.19s0-.01,0-.02,.01,0,.02,0l.26,.19s0,.01,0,.02-.01,0-.02,0Z"/>
                  <path class="cls-13" d="M43.79,36.94s-.04-.01-.06,0h0s0,0,0,0c0,0,0,0,0,0h0s0,.04,.02,.06c.02,.02,.06,.01,.07-.01,.02-.02,.01-.05-.01-.07Zm0,.06s-.02,.02-.04,0c-.01-.01-.01-.03,0-.04,0-.01,.03-.02,.04,0,.01,.01,.02,.03,0,.04Z"/>
                  <path class="cls-13" d="M43.29,36.56s-.05-.01-.06,0c0,0,0,0,0,0,0,0,0,0,0,.01,0,.02,0,.05,.02,.06,.02,.02,.06,.01,.07-.01s.01-.06-.01-.07Zm0,.06s-.02,.02-.04,0c-.02,0-.02-.02,0-.04,0-.01,.03-.01,.04,0,.01,0,.02,.03,0,.04Z"/>
                  <path class="cls-13" d="M43.71,37.33l-.41-.3s0-.01,0-.02,.01,0,.02,0l.41,.3s0,.01,0,.02-.01,0-.02,0Z"/>
                  <path class="cls-13" d="M43.79,37.3s-.05-.01-.07,0h0s0,.02,0,.02c-.01,.02,0,.05,.02,.07,.03,.02,.06,.01,.08-.01,.02-.02,.01-.06-.01-.08Zm0,.07s-.03,.02-.04,0c-.02,0-.02-.03-.01-.04h0s.03-.02,.05-.01c.01,.01,.02,.03,0,.05Z"/>
                  <path class="cls-13" d="M42.59,38.37s0,0,0,0,0,0-.01,0c-.02-.01-.05,0-.06,.02-.02,.03-.01,.06,.01,.08,.02,.02,.06,.01,.08-.01,.02-.02,.01-.05,0-.07Zm-.01,.06s-.03,.02-.05,0c-.02,0-.02-.03,0-.04,.01-.02,.03-.02,.05,0,.02,0,.02,.03,0,.04Z"/>
                  <path class="cls-13" d="M42.5,38.12s0,0,0-.01,0,0-.01,0c-.02-.01-.05,0-.06,.02-.02,.03-.01,.06,.01,.08,.02,.02,.06,.01,.08-.01,.02-.02,.01-.05,0-.07Zm-.01,.06s-.03,.02-.05,0c-.02,0-.02-.03,0-.04,.01-.02,.03-.02,.05,0,.02,.01,.02,.03,0,.05Z"/>
                  <path class="cls-13" d="M42.32,37.84s0,0,0,0,0,0-.02,0c-.02-.01-.05,0-.06,.02-.02,.02-.01,.06,.01,.08,.02,.02,.06,.01,.08-.01,.02-.02,.01-.05,0-.07Zm-.01,.06s-.03,.02-.05,0c-.01-.01-.02-.03,0-.05,0-.01,.03-.02,.04,0,.02,0,.02,.03,0,.04Z"/>
                  <path class="cls-13" d="M41.99,37.84h0s-.02-.01-.02,0c-.02,0-.04,0-.06,.02-.02,.02-.01,.06,.01,.08,.02,.02,.06,.01,.08-.01,.02-.02,.01-.06-.01-.08Zm0,.06s-.03,.02-.05,0c-.01-.01-.02-.03,0-.05,0-.02,.03-.02,.04,0,.02,.01,.02,.03,0,.05Z"/>
                  <path class="cls-13" d="M44.34,36.93s0-.01-.02-.02c-.02-.02-.06-.01-.07,.01-.02,.02-.01,.05,.01,.07,.02,.02,.06,.01,.07,0,0,0,0-.02,0-.03h0s0-.02,0-.02Zm-.02,.04s-.02,.02-.04,0c-.01,0-.01-.03,0-.04,0-.01,.03-.02,.04,0,0,0,0,.01,0,.02s0,0,0,0,0,.01,0,.02Z"/>
                  <path class="cls-13" d="M42.61,35.06s-.05-.01-.07,.01c-.02,.02,0,.05,0,.06h0s0,0,0,0c.02,.02,.05,0,.06-.01,.02-.02,.01-.06-.01-.07Zm0,.06s-.02,.02-.04,0c-.02,0-.02-.03,0-.04,0-.01,.03-.02,.04,0,.01,.01,.02,.03,0,.04Z"/>
                  <path class="cls-13" d="M42.2,35.74h0s-.06-.02-.07,0c-.02,.02-.01,.06,.01,.07,.02,.02,.05,.01,.07-.01,.01-.01,.01-.03,.01-.04,0,0,0-.02-.01-.02Zm-.06,.06s-.02-.02,0-.04c.01-.01,.03-.01,.04,0,.01,0,.02,.03,0,.04,0,.01-.03,.02-.04,0Z"/>
                  <path class="cls-13" d="M42.14,36.06s0,0,0,0c0,0,0-.01,0-.02l.5-.24s0,0,.01,0l.28,.2s0,.01,0,.02-.01,0-.02,0l-.28-.2-.5,.24s0,0-.01,0Z"/>
                  <path class="cls-13" d="M42.19,35.77s0,0,0,0c0,0,0-.01,0-.02l.31-.15s.01,0,.02,0c0,0,0,.01,0,.02l-.31,.15s0,0-.01,0Z"/>
                  <path class="cls-13" d="M41.85,35.4s0,0,0-.01c-.02-.02-.06-.01-.07,.01-.02,.02-.01,.06,.01,.07,.02,.02,.05,.01,.07-.01,0-.01,.01-.03,0-.04,0,0,0-.01,0-.02Zm-.02,.05s-.03,.01-.04,0c-.01,0-.02-.03,0-.04,0-.01,.02-.02,.04,0,.02,0,.02,.02,0,.04Z"/>
                  <path class="cls-13" d="M41.84,35.42s0,0,0,0c0,0,0-.01,0-.02l.23-.11s.01,0,.02,0c0,0,0,.01,0,.02l-.23,.11s0,0-.01,0Z"/>
                  <path class="cls-13" d="M43.26,35.61s0-.01,0-.02l.31-.44,.1-.39s0,0,.01,0c0,0,0,0,0,.01l-.1,.39s0,0,0,0l-.32,.44s-.01,0-.02,0Z"/>
                  <path class="cls-13" d="M43.46,35.75s0-.01,0-.02l.34-.47s0,0,0,0l.43-.12s.01,0,.01,0c0,0,0,.01,0,.01l-.42,.12-.34,.47s-.01,0-.02,0Z"/>
                  <path class="cls-13" d="M43.65,35.89s0-.01,0-.02l.21-.29s0,0,0,0l.54-.17s.01,0,.01,0c0,0,0,.01,0,.01l-.54,.17-.21,.29s-.01,0-.02,0Z"/>
                  <path class="cls-13" d="M43.92,36.26l-.3-.22s0-.01,0-.02,.01,0,.02,0l.3,.22,.75-.28s.01,0,.01,0c0,0,0,.01,0,.01l-.76,.28s0,0-.01,0Z"/>
                  <path class="cls-13" d="M44.27,36.6l-.69-.5s0-.01,0-.02,.01,0,.02,0l.69,.5,.55-.19s.01,0,.01,0c0,0,0,.01,0,.01l-.55,.19s0,0-.01,0Z"/>
                  <path class="cls-13" d="M44.33,36.95s0,0,0,0c0,0,0-.01,0-.01l.48-.15s.01,0,.01,0c0,0,0,.01,0,.01l-.48,.15s0,0-.01,0Z"/>
                  <path class="cls-13" d="M44.38,37.22s0,0,0-.01c-.02-.02-.06,0-.07,.01-.02,.02-.01,.06,.01,.07,.02,.02,.06,.01,.07-.01,0-.01,0-.02,0-.04h0s0-.02-.01-.02Zm-.02,.05s-.03,.02-.04,0c-.01,0-.02-.02,0-.04,0-.02,.02-.02,.04,0,.02,0,.02,.03,0,.04Z"/>
                  <path class="cls-13" d="M44.38,37.24s0,0,0,0c0,0,0-.01,0-.01l.29-.09s.01,0,.01,0c0,0,0,.01,0,.01l-.29,.09s0,0-.01,0Z"/>
                  <path class="cls-13" d="M43.07,37.35s0-.01,0-.02l.52-.84-.2-.14s0-.01,0-.02,.01,0,.02,0l.21,.15s0,.01,0,.02l-.52,.84s-.01,0-.02,0c0,0,0,0,0,0Z"/>
                  <path class="cls-13" d="M42.35,36.48s0,0,0,0c0,0,0-.01,0-.02l.42-.22s0,0,.01,0l.44,.32s0,.01,0,.02-.01,0-.02,0l-.43-.31-.42,.21s0,0-.01,0Z"/>
                  <path class="cls-13" d="M41.97,37.85s0-.01,0-.02l.41-.63s0,0,0,0l.15-.02,.36-.56s.01,0,.02,0c0,0,0,.01,0,.02l-.36,.56s0,0,0,0l-.15,.02-.4,.62s-.01,0-.02,0c0,0,0,0,0,0Z"/>
                  <path class="cls-13" d="M42.3,37.85s0-.01,0-.02l.73-1.14s.01,0,.02,0c0,0,0,.01,0,.02l-.73,1.14s-.01,0-.02,0c0,0,0,0,0,0Z"/>
                  <path class="cls-13" d="M42.48,38.13s0-.01,0-.02l.32-.48-.12-.15s0,0,0-.01l.44-.7s.01,0,.02,0c0,0,0,.01,0,.02l-.44,.69,.12,.15s0,0,0,.01l-.33,.49s-.01,0-.02,0h0Z"/>
                  <path class="cls-13" d="M42.57,38.38s0-.01,0-.02l.46-.74-.15-.18s0,0,0-.01l.37-.59s.01,0,.02,0c0,0,0,.01,0,.02l-.37,.58,.15,.18s0,0,0,.01l-.46,.75s-.01,0-.02,0c0,0,0,0,0,0Z"/>
                </g>
              </g>
              <g>
                <path class="cls-1" d="M57.18,31.05c-1.06-2.89-3.46-5.91-5.94-7.66l-2.54,2.25c2.66,1.56,4.97,4.33,5.82,7.33l2.67-1.92Z"/>
                <path class="cls-1" d="M28.79,41.31c.96,3.15,3.17,6.07,5.75,7.84l2.71-1.94c-4.08-2.47-5.03-5.31-5.77-7.64l-2.69,1.74Z"/>
              </g>
            </g>
            <g>
              <path class="cls-9" d="M40.35,46.54c-5.1-1.33-8.48-6.34-7.68-11.66,.75-4.98,4.92-8.61,9.75-8.87l.13-.86c-5.31,.21-9.91,4.17-10.73,9.61-.87,5.79,2.83,11.24,8.4,12.64l-.21,1.41,2.27-1.48-1.73-2.09-.2,1.31Z"/>
              <path class="cls-9" d="M45.72,26.37c5.1,1.33,8.48,6.34,7.68,11.66-.75,4.98-4.92,8.61-9.75,8.87l-.13,.86c5.31-.21,9.91-4.17,10.73-9.61,.87-5.79-2.83-11.24-8.4-12.64l.21-1.41-2.27,1.48,1.73,2.09,.2-1.31Z"/>
            </g>
          </g>
        </g>
        <g>
          <path class="cls-9" d="M86.49,57.14c0-.85,.16-1.64,.48-2.38,.32-.74,.76-1.38,1.31-1.94,.55-.56,1.2-1,1.94-1.32,.75-.32,1.53-.48,2.36-.48h15.8v-6.41h-20v-6.13h20c.85,0,1.65,.16,2.39,.48,.75,.32,1.39,.76,1.94,1.31,.55,.55,.98,1.2,1.31,1.94,.32,.75,.48,1.54,.48,2.39v27h-6.13v-5.6c-.06,.77-.27,1.49-.62,2.18-.35,.68-.8,1.28-1.35,1.79-.55,.51-1.18,.91-1.88,1.2-.71,.29-1.45,.44-2.24,.44h-9.7c-.83,0-1.62-.16-2.36-.48-.75-.32-1.39-.76-1.94-1.31-.55-.55-.99-1.2-1.31-1.94-.32-.75-.48-1.54-.48-2.39v-8.34Zm6.1,8.34h15.8v-8.34h-15.8v8.34Z"/>
          <path class="cls-9" d="M132.86,31.85v6.62h10.89v6.13h-10.89v27h-6.13v-27h-8.09v-6.13h8.09v-6.62c0-.85,.16-1.64,.48-2.38,.32-.74,.76-1.38,1.32-1.94s1.21-1,1.96-1.32c.75-.32,1.53-.48,2.36-.48h10.89v6.13h-10.89Z"/>
          <path class="cls-9" d="M160.2,31.85v6.62h10.89v6.13h-10.89v27h-6.13v-27h-8.09v-6.13h8.09v-6.62c0-.85,.16-1.64,.48-2.38,.32-.74,.76-1.38,1.32-1.94s1.21-1,1.96-1.32c.75-.32,1.53-.48,2.36-.48h10.89v6.13h-10.89Z"/>
          <path class="cls-9" d="M181.34,44.6v27h-6.1V38.48h6.1v5.85c.04-.81,.23-1.57,.56-2.29,.33-.72,.77-1.34,1.32-1.87s1.19-.94,1.91-1.24c.73-.3,1.5-.45,2.33-.45h6.5c.85,0,1.64,.16,2.38,.48,.74,.32,1.38,.76,1.94,1.31,.56,.55,1,1.2,1.32,1.94,.32,.75,.48,1.54,.48,2.39v5.6h-6.13v-5.6h-12.63Z"/>
          <path class="cls-9" d="M231.6,58.16h-21.93v7.31h21.93v6.13h-21.93c-.83,0-1.62-.16-2.36-.48-.75-.32-1.39-.76-1.94-1.31-.55-.55-.99-1.2-1.31-1.94-.32-.75-.48-1.54-.48-2.39v-20.87c0-.85,.16-1.65,.48-2.39,.32-.75,.76-1.39,1.31-1.94,.55-.55,1.2-.98,1.94-1.31,.75-.32,1.53-.48,2.36-.48h15.8c.85,0,1.65,.16,2.39,.48,.75,.32,1.39,.76,1.94,1.31,.55,.55,.98,1.2,1.31,1.94,.32,.75,.48,1.54,.48,2.39v13.56Zm-21.93-13.56v7.43h15.8v-7.43h-15.8Z"/>
        </g>
      </g>
    </g>
  </g>
</svg>