<svg width="32" height="35" viewBox="0 0 32 35" fill="none" xmlns="http://www.w3.org/2000/svg">
<path d="M9.79242 17.2924C9.79242 9.44384 15.0242 2.8203 22.1878 0.707921C20.5981 0.23843 18.9492 1.53713e-05 17.2916 0C7.74174 0 0 7.74213 0 17.2924C0 26.8432 7.7418 34.5847 17.2917 34.5847C18.9492 34.5849 20.5982 34.3466 22.1879 33.8774C15.0237 31.7655 9.79242 25.1415 9.79242 17.2924Z" fill="url(#paint0_linear_311_4848)"/>
<path d="M22.6997 10.5678C26.9211 10.5678 30.4842 13.3822 31.62 17.2362C31.8723 16.381 32.0004 15.494 32.0004 14.6024C32.0004 9.466 27.8364 5.30231 22.6997 5.30176C17.563 5.30176 13.3984 9.46545 13.3984 14.6018C13.3984 15.5167 13.5335 16.4007 13.7799 17.2356C14.9164 13.3822 18.4789 10.5684 22.6997 10.5678Z" fill="url(#paint1_linear_311_4848)"/>
<path d="M25.9531 20.2921C25.9531 23.4318 23.8592 26.0818 20.9932 26.9264C21.6293 27.1143 22.2892 27.2097 22.9525 27.2096C26.7718 27.2096 29.8697 24.1126 29.8697 20.2916C29.8697 16.4706 26.7734 13.373 22.9525 13.373C22.2728 13.373 21.6141 13.4725 20.9932 13.6562C23.8592 14.5014 25.9531 17.1515 25.9531 20.2921Z" fill="url(#paint2_linear_311_4848)"/>
<defs>
<linearGradient id="paint0_linear_311_4848" x1="11.0939" y1="0" x2="11.0939" y2="34.5847" gradientUnits="userSpaceOnUse">
<stop stop-color="#FFB169"/>
<stop offset="0.47" stop-color="#FF7A00"/>
<stop offset="1" stop-color="#D96A04"/>
</linearGradient>
<linearGradient id="paint1_linear_311_4848" x1="22.6994" y1="5.30176" x2="22.6994" y2="17.2362" gradientUnits="userSpaceOnUse">
<stop stop-color="#01B3FF"/>
<stop offset="1" stop-color="#006DAA"/>
</linearGradient>
<linearGradient id="paint2_linear_311_4848" x1="25.4314" y1="13.373" x2="25.4314" y2="27.2096" gradientUnits="userSpaceOnUse">
<stop stop-color="#14EA5D"/>
<stop offset="0.475" stop-color="#00FF57"/>
<stop offset="1" stop-color="#00B712"/>
</linearGradient>
</defs>
</svg>
