<?xml version="1.0" encoding="UTF-8"?>
<svg id="Layer_2" data-name="Layer 2" xmlns="http://www.w3.org/2000/svg" xmlns:xlink="http://www.w3.org/1999/xlink" viewBox="0 0 1000 1000">
  <defs>
    <style>
      .cls-1, .cls-2, .cls-3, .cls-4, .cls-5, .cls-6, .cls-7 {
        fill-rule: evenodd;
      }

      .cls-1, .cls-5, .cls-8 {
        fill: #00adee;
      }

      .cls-2 {
        fill: #fff;
      }

      .cls-9, .cls-6, .cls-7 {
        fill: #2e3191;
      }

      .cls-3 {
        fill: url(#linear-gradient-2);
      }

      .cls-4 {
        fill: url(#linear-gradient);
      }

      .cls-10 {
        fill: #00a1db;
      }

      .cls-5 {
        stroke: #00adee;
        stroke-miterlimit: 10;
        stroke-width: 1.26px;
      }

      .cls-11 {
        opacity: .1;
      }

      .cls-12 {
        fill: none;
      }

      .cls-13 {
        fill: #1671d3;
      }

      .cls-7 {
        stroke: #2e3191;
        stroke-linecap: square;
        stroke-miterlimit: 2.61;
        stroke-width: 3.25px;
      }
    </style>
    <linearGradient id="linear-gradient" x1="572.96" y1="286.99" x2="703.31" y2="457.36" gradientUnits="userSpaceOnUse">
      <stop offset=".2" stop-color="#00adee"/>
      <stop offset=".9" stop-color="#067893"/>
    </linearGradient>
    <linearGradient id="linear-gradient-2" x1="557.03" y1="361.09" x2="343.68" y2="963.44" gradientUnits="userSpaceOnUse">
      <stop offset=".34" stop-color="#00adee"/>
      <stop offset=".99" stop-color="#067893"/>
    </linearGradient>
  </defs>
  <g id="Layer_1-2" data-name="Layer 1">
    <g>
      <rect class="cls-12" width="1000" height="1000"/>
      <g>
        <g>
          <path class="cls-6" d="M213.82,231.51l52.75,.49,64.3,47.06h-114.97c-29.37,0-29.78-47.55-2.07-47.55Z"/>
          <g>
            <polygon class="cls-4" points="477.14 358.84 583.49 358.84 760.19 231.51 300.84 231.51 477.14 358.84"/>
            <polygon class="cls-3" points="828.16 231.51 758.31 231.51 189.14 641.17 426.39 641.17 828.16 354.18 828.16 231.51"/>
            <path class="cls-6" d="M192.22,311.28l185.64,.49,64.54,47.06H194.3c-29.37,0-29.79-47.56-2.08-47.56Z"/>
            <path class="cls-6" d="M740.78,768.49l-117.29-.49-45.66-47.06h160.88c29.37,0,29.79,47.56,2.07,47.56Z"/>
            <polygon class="cls-1" points="189.14 641.17 467.99 641.17 591.53 768.49 189.14 768.49 189.14 641.17"/>
            <path class="cls-6" d="M793.75,688.72l-250.19-.49-45.66-47.06h293.78c29.37,0,29.79,47.55,2.07,47.55Z"/>
          </g>
        </g>
        <g>
          <path class="cls-7" d="M613.95,515.74c-9.59,63.67-68.06,107.94-130.14,98.57-17.4-2.65-33.28-9.22-46.92-18.71-20.77-14.48-36.33-35.71-44.12-60.18-.25-.81-.5-1.62-.69-2.43l20.11-14.7,.03-.03,19.74-14.48-.09-.12h-.19v-.09l-19.55,14.29-20.18,14.76c-.25-.75-.47-1.56-.68-2.34l20.39-14.91c-.03-.12-.06-.28-.06-.4l-20.42,14.94c-4.05-15.22-5.11-31.57-2.62-48.17,9.62-63.67,68.06-107.94,130.14-98.6,16.13,2.43,30.95,8.28,43.9,16.69,21.17,13.73,37.3,34.4,45.83,58.41,6.38,17.81,8.53,37.46,5.51,57.51Z"/>
          <path class="cls-2" d="M591.16,512.32c-4.42,29.14-21.64,53.18-44.9,66.97-2.8,1.68-5.67,3.18-8.62,4.51-6.29,2.9-12.95,5.07-19.8,6.41-9.81,1.96-20.08,2.27-30.48,.72-7.25-1.09-14.2-3.05-20.67-5.76-.5-.19-.97-.4-1.43-.62h-.03c-1.49-.62-2.96-1.31-4.39-2.02-3.61-1.84-7.07-3.89-10.4-6.13-.28-.22-.59-.44-.9-.65l-1.71-1.25c-.31-.22-.59-.44-.87-.65-1.25-.93-2.49-1.93-3.67-2.93l-.84-.72c-.53-.44-1.03-.9-1.53-1.37-.28-.25-.59-.5-.84-.78-1.46-1.37-2.9-2.77-4.2-4.23-5.76-6.04-10.65-12.83-14.57-20.21-.37-.68-.72-1.37-1.09-2.09-.03-.09-.06-.22-.16-.31-.9-1.87-1.77-3.8-2.58-5.73-.06-.16-.12-.31-.19-.47-.12-.28-.22-.59-.34-.87-1.4-3.58-2.62-7.25-3.58-10.99-.03-.12-.06-.25-.09-.37-.37-1.49-.75-2.99-1.06-4.48-.03-.16-.03-.28-.06-.44-.12-.62-.25-1.28-.37-1.9-.03-.19-.06-.4-.09-.59-.03-.12-.06-.28-.06-.4-.19-.9-.31-1.84-.4-2.77v-.03c-.59-4.17-.9-8.44-.87-12.73v-.03c0-2.62,.09-5.23,.31-7.88,.19-2.12,.44-4.2,.75-6.35,7.66-50.78,54.3-86.09,103.8-78.62,15.16,2.27,28.92,8.34,40.44,17.12,.68,.5,1.34,1,1.99,1.56,1.49,1.18,2.96,2.43,4.36,3.74,.37,.31,.75,.68,1.09,1.03l1.34,1.25c.34,.37,.72,.72,1.06,1.09,.56,.56,1.09,1.12,1.59,1.68,.12,.09,.19,.16,.25,.25,.53,.56,1.06,1.12,1.56,1.71,.09,.09,.16,.16,.22,.25,1.99,2.24,3.86,4.61,5.6,7.07,.06,.09,.12,.19,.19,.25,2.37,3.33,4.55,6.85,6.44,10.49,.06,.12,.12,.22,.16,.34,.4,.68,.75,1.37,1.06,2.09h.03c.06,.09,.09,.19,.16,.31,.97,1.99,1.87,4.05,2.71,6.1,.19,.47,.37,.9,.53,1.37,2.8,7.32,4.73,15.04,5.64,23.01l.06,.4c.12,1.15,.22,2.3,.31,3.46l.03,.4c.47,6.79,.22,13.76-.84,20.8Z"/>
          <g>
            <g>
              <g class="cls-11">
                <polygon class="cls-10" points="439.72 490.9 431.4 496.57 432.03 503.63 431.87 503.63 431.87 503.66 431.68 503.66 431.68 503.57 431.03 496.41 431.12 496.35 439.53 490.62 440.21 490.15 440.4 490.43 439.72 490.9"/>
                <polygon class="cls-10" points="428.23 502.9 427.62 496.31 427.71 496.26 456.15 476.81 456.35 477.1 427.99 496.49 428.58 502.87 428.23 502.9"/>
                <path class="cls-10" d="M441.07,490.62c-.19,.42-.68,.61-1.1,.43-.42-.19-.61-.68-.43-1.1,.19-.42,.68-.61,1.1-.43s.61,.68,.43,1.1Z"/>
                <path class="cls-10" d="M457.02,477.29c-.19,.42-.68,.61-1.1,.43s-.61-.68-.43-1.1,.68-.61,1.1-.43c.42,.19,.61,.68,.43,1.1Z"/>
                <path class="cls-10" d="M442.62,499.61c-.19,.42-.68,.61-1.1,.43s-.61-.68-.43-1.1c.19-.42,.68-.61,1.1-.43,.42,.19,.61,.68,.43,1.1Z"/>
                <path class="cls-10" d="M415.62,519.37c-.19,.42-.68,.61-1.1,.43-.42-.19-.61-.68-.43-1.1,.19-.42,.68-.61,1.1-.43s.61,.68,.43,1.1Z"/>
                <path class="cls-10" d="M407.13,528.39c-.19,.42-.68,.61-1.1,.43-.42-.19-.61-.68-.43-1.1s.68-.61,1.1-.43c.42,.19,.61,.68,.43,1.1Z"/>
                <polygon class="cls-10" points="406.47 528.2 406.26 527.91 446.66 498.34 446.86 498.63 406.47 528.2"/>
                <polygon class="cls-10" points="414.96 519.17 414.76 518.89 441.75 499.13 441.96 499.41 414.96 519.17"/>
                <g>
                  <path class="cls-10" d="M391.99,532.81l-.06-.16,.03-.03c0,.06,0,.12,.03,.19Z"/>
                  <path class="cls-10" d="M392.08,532.99l-.03,.03-.03-.12s.03,.06,.06,.09Z"/>
                  <polygon class="cls-10" points="431.87 503.63 431.87 503.66 431.68 503.66 431.68 503.57 431.78 503.51 431.87 503.63"/>
                </g>
                <path class="cls-10" d="M428.51,503.04l-16.84,12.33c-.03-.12-.06-.28-.06-.4l16.63-12.17,.06-.06,.12,.16,.09,.16Z"/>
                <path class="cls-10" d="M431.87,503.61l-19.65,14.58c-.04-.15-.07-.33-.07-.48l19.4-14.4,.07-.07,.15,.18,.11,.18Z"/>
              </g>
              <g class="cls-11">
                <polygon class="cls-10" points="519.5 549.26 519.3 548.97 547.14 529.39 546.35 520.49 546.7 520.46 547.5 529.56 547.42 529.62 519.5 549.26"/>
                <polygon class="cls-10" points="532.83 542.64 532.63 542.35 551.44 529.49 550.7 521.44 551.05 521.41 551.81 529.66 551.73 529.72 532.83 542.64"/>
                <path class="cls-10" d="M518.44,548.69c.23-.53,.85-.77,1.39-.54s.77,.85,.54,1.39-.85,.77-1.39,.54-.77-.85-.54-1.39Z"/>
                <path class="cls-10" d="M531.77,542.07c.23-.53,.85-.77,1.39-.54,.53,.23,.77,.85,.54,1.39s-.85,.77-1.39,.54c-.53-.23-.77-.85-.54-1.39Z"/>
                <path class="cls-10" d="M533,525.55c.23-.53,.85-.77,1.39-.54,.53,.23,.77,.85,.54,1.39s-.85,.77-1.39,.54-.77-.85-.54-1.39Z"/>
                <path class="cls-10" d="M566.94,500.71c.23-.53,.85-.77,1.39-.54s.77,.85,.54,1.39-.85,.77-1.39,.54c-.53-.23-.77-.85-.54-1.39Z"/>
                <path class="cls-10" d="M577.62,489.36c.23-.53,.85-.77,1.39-.54s.77,.85,.54,1.39c-.23,.53-.85,.77-1.39,.54-.53-.23-.77-.85-.54-1.39Z"/>
                <polygon class="cls-10" points="527.9 527.1 527.69 526.82 578.48 489.64 578.69 489.93 527.9 527.1"/>
                <polygon class="cls-10" points="534.06 526.11 533.86 525.83 567.8 500.99 568 501.27 534.06 526.11"/>
                <polygon class="cls-10" points="591.65 487.66 546.71 520.56 546.63 520.61 546.52 520.47 546.41 520.33 591.6 487.26 591.65 487.66"/>
                <polygon class="cls-10" points="592 491.53 551.06 521.51 550.97 521.57 550.87 521.43 550.77 521.28 591.97 491.12 592 491.53"/>
              </g>
              <path class="cls-8" d="M527.58,487.88v-.03l-.03-.16-.78-7.19v-.09l-6.94-3.08-.28-.09-19.68-8.69-.09-.03-23.82,17.4,2.37,21.86,.03,.22,.78,7.16,.03,.09,6.97,3.08,.16,.06,19.74,8.72,.09,.03,23.82-17.4-2.37-21.86Zm-21.48,38.86l-26.62-11.74-3.14-28.92,23.48-17.19,26.62,11.74,3.14,28.92-23.48,17.19Z"/>
              <path class="cls-10" d="M524.65,481.96l-24.6-10.87-21.7,15.88,2.93,26.71,24.57,10.87,21.7-15.88-2.9-26.71Zm-18.96,40.97l-23.1-10.21-2.74-25.09,20.36-14.91,23.13,10.18,2.71,25.13-20.36,14.91Z"/>
              <g>
                <polygon class="cls-8" points="463.27 512.97 462.63 505.71 462.71 505.65 471.79 499.45 471.99 499.74 463 505.88 463.62 512.94 463.27 512.97"/>
                <polygon class="cls-8" points="459.81 512.21 459.2 505.62 459.29 505.57 474.32 495.29 474.52 495.58 459.57 505.8 460.16 512.18 459.81 512.21"/>
                <path class="cls-8" d="M472.65,499.93c-.19,.42-.68,.61-1.1,.43s-.61-.68-.43-1.1c.19-.42,.68-.61,1.1-.43s.61,.68,.43,1.1Z"/>
                <path class="cls-8" d="M475.18,495.77c-.19,.42-.68,.61-1.1,.43s-.61-.68-.43-1.1,.68-.61,1.1-.43c.42,.19,.61,.68,.43,1.1Z"/>
                <path class="cls-8" d="M474.2,508.92c-.19,.42-.68,.61-1.1,.43s-.61-.68-.43-1.1,.68-.61,1.1-.43c.42,.19,.61,.68,.43,1.1Z"/>
                <path class="cls-8" d="M447.21,528.68c-.19,.42-.68,.61-1.1,.43-.42-.19-.61-.68-.43-1.1,.19-.42,.68-.61,1.1-.43s.61,.68,.43,1.1Z"/>
                <path class="cls-8" d="M438.71,537.7c-.19,.42-.68,.61-1.1,.43-.42-.19-.61-.68-.43-1.1s.68-.61,1.1-.43c.42,.19,.61,.68,.43,1.1Z"/>
                <polygon class="cls-8" points="438.05 537.51 437.84 537.22 478.24 507.65 478.45 507.94 438.05 537.51"/>
                <polygon class="cls-8" points="446.55 528.48 446.34 528.2 473.34 508.44 473.54 508.72 446.55 528.48"/>
                <polygon class="cls-8" points="423.16 542.66 422.95 542.38 463.34 512.81 463.55 513.09 423.16 542.66"/>
                <polygon class="cls-8" points="419.7 541.91 419.49 541.62 459.89 512.05 460.09 512.34 419.7 541.91"/>
              </g>
              <g>
                <polygon class="cls-8" points="483.42 533.98 476.71 531.11 476.85 530.79 483.37 533.58 492 526.95 492.21 527.22 483.42 533.98"/>
                <polygon class="cls-8" points="482.43 537.26 476.36 534.63 476.5 534.31 482.38 536.86 496.74 525.83 496.95 526.11 482.43 537.26"/>
                <path class="cls-8" d="M492.02,526.25c-.46,.05-.79,.45-.75,.91,.05,.46,.45,.79,.91,.75s.79-.45,.75-.91c-.05-.46-.45-.79-.91-.75Z"/>
                <path class="cls-8" d="M496.76,525.14c-.46,.05-.79,.45-.75,.91,.05,.46,.45,.79,.91,.75,.46-.05,.79-.45,.75-.91-.05-.46-.45-.79-.91-.75Z"/>
                <path class="cls-8" d="M483.97,521.98c-.46,.05-.79,.45-.75,.91,.05,.46,.45,.79,.91,.75,.46-.05,.79-.45,.75-.91-.05-.46-.45-.79-.91-.75Z"/>
                <path class="cls-8" d="M456.79,541.49c-.46,.05-.79,.46-.75,.91,.05,.46,.45,.79,.91,.75,.46-.05,.79-.45,.75-.91-.05-.46-.45-.79-.91-.75Z"/>
                <path class="cls-8" d="M445.57,546.76c-.46,.05-.79,.45-.75,.91,.05,.46,.45,.79,.91,.75,.46-.05,.79-.45,.75-.91-.05-.46-.45-.79-.91-.75Z"/>
                <rect class="cls-8" x="440.95" y="532.82" width="50.06" height=".35" transform="translate(-223.39 371.77) rotate(-35.67)"/>
                <rect class="cls-8" x="453.73" y="532.39" width="33.46" height=".35" transform="translate(-222.3 374.3) rotate(-35.67)"/>
                <rect class="cls-8" x="431.42" y="545.37" width="50.06" height=".35" transform="translate(-232.49 368.57) rotate(-35.67)"/>
                <rect class="cls-8" x="431.06" y="548.89" width="50.06" height=".35" transform="translate(-234.62 369.02) rotate(-35.67)"/>
              </g>
              <g>
                <polygon class="cls-8" points="534.13 496.22 533.93 495.93 542.92 489.79 542.29 482.73 542.64 482.7 543.29 489.96 543.2 490.02 534.13 496.22"/>
                <polygon class="cls-8" points="531.6 500.37 531.4 500.08 546.35 489.87 545.75 483.48 546.1 483.45 546.71 490.04 546.63 490.1 531.6 500.37"/>
                <path class="cls-8" d="M533.27,495.74c.19-.42,.68-.61,1.1-.43,.42,.19,.61,.68,.43,1.1-.19,.42-.68,.61-1.1,.43-.42-.19-.61-.68-.43-1.1Z"/>
                <path class="cls-8" d="M530.74,499.89c.19-.42,.68-.61,1.1-.43,.42,.19,.61,.68,.43,1.1-.19,.42-.68,.61-1.1,.43s-.61-.68-.43-1.1Z"/>
                <path class="cls-8" d="M531.71,486.75c.19-.42,.68-.61,1.1-.43,.42,.19,.61,.68,.43,1.1-.19,.42-.68,.61-1.1,.43-.42-.19-.61-.68-.43-1.1Z"/>
                <path class="cls-8" d="M558.71,466.99c.19-.42,.68-.61,1.1-.43s.61,.68,.43,1.1c-.19,.42-.68,.61-1.1,.43-.42-.19-.61-.68-.43-1.1Z"/>
                <path class="cls-8" d="M567.2,457.96c.19-.42,.68-.61,1.1-.43,.42,.19,.61,.68,.43,1.1s-.68,.61-1.1,.43c-.42-.19-.61-.68-.43-1.1Z"/>
                <polygon class="cls-8" points="527.68 488.01 527.47 487.73 567.87 458.16 568.07 458.44 527.68 488.01"/>
                <polygon class="cls-8" points="532.58 487.23 532.37 486.94 559.37 467.18 559.58 467.47 532.58 487.23"/>
                <polygon class="cls-8" points="581.37 454.02 581.33 454.05 542.37 482.57 542.47 482.71 542.57 482.85 542.65 482.8 581.49 454.37 581.53 454.34 581.37 454.02"/>
                <polygon class="cls-8" points="582.59 456.42 582.55 456.45 545.83 483.32 545.93 483.46 546.03 483.61 546.12 483.55 582.71 456.77 582.74 456.73 582.59 456.42"/>
              </g>
              <polygon class="cls-8" points="513.92 468.72 513.7 468.44 522.5 461.68 529.2 464.55 529.06 464.88 522.55 462.09 513.92 468.72"/>
              <polygon class="cls-8" points="509.18 469.83 508.97 469.55 523.49 458.4 529.56 461.03 529.42 461.35 523.54 458.81 509.18 469.83"/>
              <path class="cls-10" d="M513.89,469.41c.46-.05,.79-.46,.75-.91-.05-.46-.45-.79-.91-.75-.46,.05-.79,.45-.75,.91,.05,.46,.45,.79,.91,.75Z"/>
              <path class="cls-10" d="M509.16,470.52c.46-.05,.79-.45,.75-.91-.05-.46-.45-.79-.91-.75s-.79,.45-.75,.91c.05,.46,.45,.79,.91,.75Z"/>
              <path class="cls-10" d="M486.68,475.08c.46-.05,.79-.45,.75-.91-.05-.46-.45-.79-.91-.75-.46,.05-.79,.45-.75,.91,.05,.46,.45,.79,.91,.75Z"/>
              <path class="cls-10" d="M521.95,473.68c.46-.05,.79-.45,.75-.91-.05-.46-.45-.79-.91-.75-.46,.05-.79,.45-.75,.91,.05,.46,.46,.79,.91,.75Z"/>
              <path class="cls-8" d="M549.13,454.17c.46-.05,.79-.46,.75-.91-.05-.46-.45-.79-.91-.75-.46,.05-.79,.45-.75,.91,.05,.46,.45,.79,.91,.75Z"/>
              <path class="cls-8" d="M560.35,448.9c.46-.05,.79-.45,.75-.91-.05-.46-.45-.79-.91-.75-.46,.05-.79,.45-.75,.91,.05,.46,.45,.79,.91,.75Z"/>
              <rect class="cls-8" x="514.9" y="462.49" width="50.06" height=".35" transform="translate(-168.5 401.7) rotate(-35.67)"/>
              <rect class="cls-8" x="518.73" y="462.92" width="33.46" height=".35" transform="translate(-169.59 399.17) rotate(-35.67)"/>
              <polygon class="cls-8" points="569.13 436.21 569.09 436.24 529.23 464.85 529.13 464.71 529.03 464.58 529.11 464.51 568.86 435.97 568.9 435.94 569.13 436.21"/>
              <polygon class="cls-8" points="567.35 434.22 567.31 434.26 529.59 461.34 529.49 461.19 529.39 461.05 529.47 461 567.06 434 567.11 433.97 567.35 434.22"/>
              <polygon class="cls-8" points="476.81 481.62 476.6 481.34 494.82 468 495.03 468.28 476.81 481.62"/>
              <path class="cls-10" d="M519.94,521.58c.46-.05,.79-.45,.75-.91-.05-.46-.45-.79-.91-.75-.46,.05-.79,.45-.75,.91,.05,.46,.45,.79,.91,.75Z"/>
              <polygon class="cls-10" points="510.06 528.12 509.86 527.84 528.08 514.5 528.29 514.78 510.06 528.12"/>
              <g>
                <polygon class="cls-8" points="585.46 462.85 585.42 462.88 553.92 485.83 553.29 500.22 553.22 501.81 524.49 524.11 524.43 524.16 525.29 525.27 525.39 525.2 554.59 502.52 554.74 499.08 555.3 486.57 585.94 464.24 586 464.2 585.46 462.85"/>
                <path class="cls-8" d="M525.37,525.24c-.16-.47-.47-.87-.9-1.09h-.03c-.09-.12-.19-.19-.28-.22-.62-.25-1.28-.28-1.87-.03-.62,.22-1.09,.68-1.37,1.28-.25,.59-.28,1.25-.03,1.87,.22,.62,.68,1.09,1.28,1.34,.12,.06,.22,.09,.31,.12,.53,.16,1.06,.12,1.56-.06,.62-.25,1.09-.72,1.37-1.31,.28-.62,.25-1.31-.03-1.9Zm-1.28,1.34c-.22,.53-.84,.75-1.34,.53-.53-.22-.78-.84-.53-1.37,.19-.47,.72-.72,1.21-.56,.06,0,.09,.03,.12,.03,.53,.25,.78,.84,.53,1.37Z"/>
              </g>
              <g>
                <polygon class="cls-8" points="412.16 539.35 411.33 538.21 451.04 509.28 451.73 493.33 481.04 470.58 481.9 471.69 453.11 494.04 452.41 510.02 412.16 539.35"/>
                <path class="cls-8" d="M485.45,468.79c-.25-.59-.69-1.09-1.31-1.34-1.21-.53-2.65,0-3.21,1.25-.28,.65-.25,1.34,.03,1.93,.16,.44,.47,.84,.9,1.09,.09,.09,.19,.12,.31,.19,.09,.06,.22,.09,.31,.12,.53,.16,1.06,.12,1.56-.06,.62-.25,1.09-.72,1.34-1.31,.28-.59,.28-1.25,.06-1.87Zm-1.34,1.31c-.22,.53-.84,.75-1.37,.53-.5-.22-.75-.84-.53-1.37,.22-.47,.75-.72,1.25-.56,.03,0,.09,.03,.12,.03,.53,.25,.78,.84,.53,1.37Z"/>
              </g>
              <path class="cls-10" d="M498.62,460.92l.37-.06-.06-.47-.37,.06c0-.09-.03-.16-.06-.22l.37-.12-.16-.44-.34,.12c-.03-.09-.06-.16-.09-.22l.31-.19-.22-.4-.34,.19c-.03-.06-.06-.12-.12-.19l.28-.25-.31-.34-.28,.25c-.06-.03-.09-.09-.16-.16l.22-.28-.37-.28-.22,.31c-.09-.06-.16-.09-.22-.12l.16-.34-.4-.19-.16,.34c-.09-.03-.16-.03-.22-.06l.06-.37-.44-.09-.09,.37c-.06,0-.16-.03-.22-.03v-.37h-.47v.37c-.06,0-.16,.03-.22,.03l-.09-.37-.44,.09,.06,.37c-.06,.03-.12,.06-.19,.06l-.19-.34-.4,.19,.16,.37c-.06,.03-.12,.06-.19,.09l-.25-.31-.37,.28,.25,.31c-.06,.03-.12,.09-.19,.16l-.28-.25-.31,.34,.28,.25c-.03,.06-.09,.12-.12,.19l-.34-.19-.22,.4,.34,.19s-.03,.06-.06,.09c0,.03-.03,.06-.03,.09l-.37-.09-.16,.44,.37,.12c0,.06-.03,.12-.03,.22l-.37-.06-.06,.47,.37,.03v.25l-.37,.03,.06,.47,.37-.03c0,.06,.03,.12,.03,.19l-.34,.12,.12,.47,.37-.12c.03,.06,.06,.12,.09,.19l-.34,.19,.25,.4,.34-.19c.03,.06,.06,.12,.12,.19l-.28,.25,.31,.34,.28-.25c.03,.06,.09,.09,.16,.16l-.22,.31,.37,.28,.22-.31c.06,.03,.12,.06,.19,.09l-.12,.34,.4,.19,.16-.34c.06,.03,.16,.06,.22,.06l-.09,.37,.47,.09,.09-.37c.06,.03,.12,.03,.22,.03v.37h.47v-.37c.06,0,.16,0,.22-.03l.06,.37,.47-.09-.06-.37c.06,0,.12-.03,.19-.06l.16,.34,.44-.19-.16-.34c.06-.03,.12-.09,.19-.12l.22,.31,.4-.28-.25-.31c.06-.03,.12-.09,.19-.12l.28,.25,.31-.34-.28-.28s.06-.09,.12-.16l.31,.19,.25-.4-.34-.19c.03-.06,.03-.09,.06-.12,0-.03,.03-.06,.03-.09l.37,.12,.12-.44-.34-.12c0-.09,.03-.16,.03-.22l.37,.03,.06-.47-.37-.03v-.22Zm-.75,1.25c-.62,1.4-2.27,2.02-3.67,1.43-1.4-.62-2.06-2.27-1.43-3.67,.62-1.43,2.27-2.05,3.67-1.43s2.06,2.27,1.43,3.67Z"/>
              <path class="cls-10" d="M501.74,531.31h.22l-.03-.28-.22,.03c-.03-.06-.03-.09-.03-.12l.22-.06-.09-.28-.22,.06s-.03-.06-.06-.09l.22-.12-.16-.22-.19,.09s-.06-.06-.06-.09l.16-.16-.19-.19-.16,.12s-.06-.03-.09-.06l.12-.19-.22-.16-.12,.19c-.06-.03-.09-.06-.12-.09l.09-.19-.25-.12-.09,.22s-.09-.03-.12-.03l.03-.22-.25-.06-.06,.22s-.06,0-.12-.03v-.22h-.25v.25h-.12l-.06-.22-.25,.06,.03,.22s-.09,.03-.12,.03l-.09-.19-.25,.09,.09,.22s-.06,.03-.09,.06l-.16-.19-.22,.16,.16,.19c-.06,.03-.09,.06-.12,.09l-.16-.16-.19,.19,.19,.16s-.06,.06-.09,.12l-.19-.12-.12,.25,.19,.09s-.03,.03-.03,.06,0,.03-.03,.06l-.22-.06-.06,.25,.22,.06c-.03,.06-.03,.09-.03,.12h-.22l-.03,.25,.22,.03v.12l-.22,.03,.03,.25h.22s0,.06,.03,.12l-.22,.06,.09,.25,.19-.06s.06,.09,.06,.12l-.19,.09,.12,.25,.22-.12s.03,.09,.06,.12l-.16,.12,.19,.22,.16-.16s.06,.06,.09,.09l-.12,.19,.22,.16,.12-.19s.06,.03,.12,.06l-.09,.22,.25,.09,.09-.19s.06,0,.09,.03l-.03,.22,.28,.06,.03-.22h.12v.22h.28v-.22h.12l.03,.19,.28-.03-.06-.22c.06-.03,.09-.03,.12-.06l.09,.22,.25-.12-.09-.19c.06-.03,.09-.06,.12-.06l.12,.16,.22-.16-.12-.16,.09-.09,.16,.16,.19-.22-.16-.16s.03-.06,.06-.09l.19,.09,.16-.22-.19-.12v-.03s.03-.06,.03-.06l.22,.06,.09-.28-.22-.06s0-.06,.03-.12l.22,.03,.03-.28h-.22v-.16Zm-.44,.75c-.37,.81-1.31,1.18-2.15,.81-.81-.34-1.18-1.31-.81-2.12,.34-.81,1.31-1.18,2.12-.84,.81,.37,1.18,1.31,.84,2.15Z"/>
              <path class="cls-8" d="M531.69,453.44l-.16-.03c-.12,0-.19-.09-.19-.19-.03,0-.03-.03-.03-.03,0-.09,.03-.22,.12-.25l.16-.09c.12-.03,.16-.19,.12-.28l-.19-.34c-.03-.12-.19-.16-.28-.12l-.19,.09c-.06,.03-.19,.03-.25-.06-.06-.03-.09-.09-.16-.12-.09-.09-.09-.19-.06-.28l.06-.16c.06-.12,0-.25-.09-.31l-.37-.16c-.09-.03-.25,0-.28,.12l-.06,.16c-.06,.09-.16,.16-.25,.16-.03,0-.03-.03-.03-.03-.12,0-.19-.06-.22-.16l-.03-.19c-.03-.12-.16-.19-.28-.19l-.37,.09c-.09,0-.19,.12-.16,.25l.03,.19c.03,.09-.03,.19-.12,.25h-.03c-.09,.06-.19,.06-.28-.03l-.12-.12c-.09-.06-.22-.06-.31,.03l-.28,.25c-.06,.09-.06,.25,.03,.34l.12,.12c.06,.06,.09,.16,.03,.25,0,.03-.03,.06-.03,.09-.03,.03-.03,.06-.03,.09l-.37-.03c-.12-.03-.22,.06-.25,.19l-.06,.37c0,.12,.06,.22,.19,.25l.19,.03c.09,0,.19,.09,.19,.19v.03c.03,.12-.03,.22-.12,.25l-.16,.09c-.12,.03-.16,.19-.09,.28l.16,.34c.06,.12,.19,.16,.31,.12l.16-.09c.09-.03,.19-.03,.28,.06l.16,.16c.06,.06,.09,.16,.06,.25l-.09,.16c-.03,.12,0,.25,.12,.31l.34,.16c.12,.03,.25,0,.31-.12l.06-.16c.03-.09,.12-.16,.25-.12h.03c.09,0,.19,.06,.19,.16l.06,.19c0,.12,.12,.22,.25,.19l.37-.09c.12,0,.19-.12,.19-.25l-.03-.19c-.03-.09,.03-.19,.09-.25h.06c.06-.06,.19-.03,.25,.03l.12,.12c.09,.09,.25,.06,.34,0l.25-.28c.09-.09,.09-.25,0-.31l-.12-.12c-.09-.09-.09-.19-.06-.28,.03-.03,.03-.06,.06-.09,0-.03,.03-.06,.03-.09l.34,.06c.12,0,.25-.09,.25-.19l.06-.4c.03-.12-.06-.22-.19-.25Zm-1,.65c-.34,.72-1.18,1.06-1.93,.75-.72-.34-1.06-1.18-.72-1.93,.31-.72,1.18-1.06,1.9-.72,.75,.31,1.06,1.15,.75,1.9Z"/>
              <path class="cls-10" d="M512.17,531.93l-.09-.03c-.06,0-.12-.06-.12-.12v-.03c0-.06,.03-.12,.06-.12l.12-.06c.06-.03,.09-.12,.06-.19l-.12-.22c-.03-.06-.09-.09-.19-.06l-.09,.06c-.06,.03-.12,0-.16-.03-.03-.03-.06-.06-.09-.09-.06-.06-.06-.12-.03-.16l.03-.12c.03-.06,0-.16-.06-.19l-.22-.09c-.06-.03-.16,0-.19,.09l-.06,.09c0,.06-.06,.09-.12,.09l-.03-.03c-.06,0-.12-.03-.12-.09l-.03-.12c0-.06-.09-.12-.16-.09l-.22,.03c-.09,.03-.12,.09-.12,.19l.03,.09c0,.06-.03,.12-.09,.16-.03,.03-.06,.03-.09,.03s-.06,0-.09-.03l-.06-.09c-.06-.06-.16-.03-.22,0l-.16,.19c-.06,.06-.03,.12,0,.19l.09,.09s.06,.09,.03,.16t-.03,.06s-.03,.03-.03,.06l-.22-.03c-.06-.03-.16,.03-.16,.09l-.03,.25c-.03,.06,.03,.16,.12,.16l.09,.03c.06,0,.12,.03,.12,.09v.03c0,.06-.03,.12-.06,.16l-.12,.06c-.06,.03-.09,.09-.06,.19l.12,.19c.03,.09,.09,.09,.19,.06l.09-.03c.06-.03,.12-.03,.16,.03,.03,.03,.06,.06,.09,.09,.06,.03,.06,.09,.03,.16l-.03,.09c-.03,.09,0,.16,.06,.19l.22,.09c.06,.03,.16,0,.19-.06l.06-.09c0-.06,.06-.09,.12-.09h.03c.06,0,.12,.06,.12,.12l.03,.09c0,.09,.09,.12,.16,.12l.22-.06c.09,0,.12-.09,.12-.16l-.03-.09c0-.06,.03-.12,.09-.16v-.03c.06-.03,.12,0,.19,.03l.06,.06c.06,.06,.16,.06,.22,0l.16-.16c.06-.06,.06-.16,0-.22l-.09-.06s-.06-.12-.03-.16c.03-.03,.03-.06,.03-.06,0-.03,.03-.03,.03-.06l.22,.03c.06,0,.16-.03,.16-.12l.03-.22c.03-.09-.03-.16-.12-.16Zm-.62,.37c-.19,.47-.72,.69-1.18,.47-.44-.19-.65-.72-.44-1.18,.19-.44,.72-.65,1.18-.47,.44,.22,.65,.75,.44,1.18Z"/>
              <path class="cls-8" d="M559.62,454.84h-.12c-.06-.03-.09-.06-.09-.12v-.03c-.03-.06,0-.12,.06-.16l.09-.03c.06-.03,.09-.12,.06-.19l-.09-.22c-.03-.06-.12-.09-.19-.06l-.09,.06c-.06,0-.12,0-.19-.03-.03-.06-.06-.09-.09-.12s-.06-.09-.03-.16l.06-.09c.03-.06,0-.16-.09-.19l-.22-.09c-.06-.03-.16,0-.19,.06l-.03,.12s-.09,.06-.16,.06h-.03c-.06,0-.09-.03-.12-.09v-.12c-.03-.06-.09-.12-.19-.09l-.22,.03c-.06,0-.12,.09-.09,.16v.12c.03,.06,0,.12-.06,.16h-.03c-.06,.03-.12,.03-.16-.03l-.09-.06c-.06-.06-.12-.06-.19,0l-.16,.19c-.06,.03-.06,.12,0,.19l.06,.06c.06,.06,.06,.12,.03,.19,0,0,0,.03-.03,.06v.03l-.22-.03c-.09,0-.16,.06-.16,.12l-.06,.25c0,.06,.06,.12,.12,.16h.12c.06,.03,.09,.06,.09,.12,0,0,0,.03,.03,.03,0,.06-.03,.12-.09,.16l-.09,.03c-.06,.03-.09,.12-.06,.19l.09,.22c.03,.06,.12,.09,.19,.06l.09-.03c.06-.03,.12-.03,.19,.03,.03,.03,.06,.06,.09,.09,.03,.03,.06,.09,.03,.16l-.03,.09c-.03,.06,0,.16,.06,.19l.22,.09c.06,.03,.16,0,.19-.06l.03-.12s.09-.06,.16-.06h.03c.06,0,.09,.06,.12,.09v.12c.03,.06,.09,.12,.19,.09l.22-.03c.06,0,.12-.09,.12-.16l-.03-.12c-.03-.06,0-.12,.06-.16h.03c.06-.03,.12-.03,.16,.03l.09,.06c.06,.06,.12,.06,.19,0l.16-.16c.06-.06,.06-.16,0-.22l-.06-.06c-.06-.06-.06-.12-.03-.19,0,0,0-.03,.03-.06v-.03l.22,.03c.09,0,.16-.06,.19-.12l.03-.25c0-.06-.06-.12-.12-.16Zm-.62,.4c-.22,.47-.75,.65-1.18,.47-.47-.22-.65-.75-.47-1.18,.22-.47,.75-.65,1.18-.47,.47,.22,.65,.75,.47,1.18Z"/>
              <g>
                <path class="cls-13" d="M504.08,508.38c-1.49-1.07-2.52-2.72-2.58-2.82-.03-.04-.01-.1,.03-.12,.04-.03,.1-.01,.12,.03,.02,.03,2.17,3.46,4.67,3.64,2.46,.17,4.28-2.4,4.3-2.42,.02-.03,.05-.04,.09-.04,0,0,.55,.07,1.64-.56,1.09-.64,1.25-1.97,1.26-1.98,0-.02,.01-.04,.03-.06,1.53-1.19,1.06-2.59,1.05-2.6,0-.03,0-.06,.01-.08,1.1-1.48,.23-2.91,.2-2.97-.01-.02-.02-.05,0-.07,.7-2.22-.95-3.19-1.02-3.23-.04-.02-.05-.05-.04-.09,.35-3-2.09-4.16-2.11-4.18-.04-.02-.06-.05-.05-.09,.25-1.61-1.22-1.91-1.28-1.92-.03,0-.06-.03-.07-.06-1.06-3.15-3.94-2.81-4.06-2.79-.03,0-.06,0-.07-.03-3.49-3.53-6.65-1.25-6.78-1.15-.03,.02-.07,.02-.1,0-2.35-1.46-3.92,.47-3.93,.49-.02,.03-.06,.04-.09,.03-1.36-.36-1.74,.84-1.76,.89-.01,.03-.04,.06-.07,.06-.02,0-1.67,.21-2.52,1.9-.85,1.68,.16,2.92,.2,2.97,.01,.02,.02,.04,.02,.06-.07,.83,.1,1.5,.53,2.01,.7,.83,1.84,.92,1.85,.92,.03,0,.05,.02,.07,.04,.01,.02,.02,.05,.01,.07-.26,.88,.77,1.27,.82,1.28,.04,.02,.07,.07,.05,.11-.77,2.22,1.47,3.14,1.57,3.18,.03,.01,.05,.03,.05,.06,.22,1.1,.67,1.85,1.33,2.25,.82,.5,1.69,.26,1.7,.25,.05-.01,.09,.01,.11,.06,.01,.05-.01,.1-.06,.11-.04,.01-.95,.27-1.84-.27-.69-.42-1.17-1.2-1.4-2.33-.33-.15-2.35-1.15-1.65-3.3-.26-.12-1.04-.55-.87-1.36-.31-.04-1.24-.23-1.87-.97-.45-.54-.65-1.24-.58-2.1-.16-.21-1.03-1.49-.2-3.14,.81-1.6,2.3-1.94,2.6-1.99,.1-.25,.59-1.28,1.9-.97,.26-.29,1.83-1.88,4.08-.52,.43-.29,3.58-2.19,6.93,1.17,.38-.03,3.14-.16,4.19,2.87,.28,.07,1.58,.5,1.38,2.05,.38,.2,2.46,1.45,2.16,4.27,.29,.19,1.71,1.26,1.07,3.37,.13,.24,.83,1.67-.2,3.1,.07,.26,.34,1.59-1.1,2.73-.03,.23-.26,1.45-1.34,2.08-.97,.56-1.53,.6-1.71,.59-.25,.34-2.04,2.63-4.43,2.46-.8-.06-1.56-.42-2.23-.9Z"/>
                <g>
                  <rect class="cls-13" x="501" y="492.86" width="4.49" height="4.49" transform="translate(384.77 -200.84) rotate(35.81)"/>
                  <rect class="cls-13" x="501.61" y="491.38" width=".26" height="5.3" transform="translate(383.85 -200.17) rotate(35.81)"/>
                  <rect class="cls-13" x="502.1" y="491.73" width=".26" height="5.3" transform="translate(384.15 -200.39) rotate(35.81)"/>
                  <rect class="cls-13" x="502.58" y="492.08" width=".26" height="5.3" transform="translate(384.45 -200.61) rotate(35.81)"/>
                  <rect class="cls-13" x="503.07" y="492.43" width=".26" height="5.3" transform="translate(384.75 -200.83) rotate(35.81)"/>
                  <rect class="cls-13" x="503.56" y="492.78" width=".26" height="5.3" transform="translate(385.05 -201.05) rotate(35.81)"/>
                  <rect class="cls-13" x="504.05" y="493.14" width=".26" height="5.3" transform="translate(385.34 -201.27) rotate(35.81)"/>
                  <rect class="cls-13" x="504.54" y="493.49" width=".26" height="5.3" transform="translate(385.64 -201.48) rotate(35.81)"/>
                  <rect class="cls-13" x="502.02" y="493.9" width=".26" height="5.3" transform="translate(-194.33 613.29) rotate(-54.19)"/>
                  <rect class="cls-13" x="502.37" y="493.41" width=".26" height="5.3" transform="translate(-193.79 613.37) rotate(-54.19)"/>
                  <rect class="cls-13" x="502.72" y="492.92" width=".26" height="5.3" transform="translate(-193.24 613.45) rotate(-54.19)"/>
                  <rect class="cls-13" x="503.07" y="492.43" width=".26" height="5.3" transform="translate(-192.7 613.54) rotate(-54.19)"/>
                  <rect class="cls-13" x="503.42" y="491.94" width=".26" height="5.3" transform="translate(-192.16 613.62) rotate(-54.19)"/>
                  <rect class="cls-13" x="503.78" y="491.46" width=".26" height="5.3" transform="translate(-191.62 613.7) rotate(-54.19)"/>
                  <rect class="cls-13" x="504.13" y="490.97" width=".26" height="5.3" transform="translate(-191.08 613.79) rotate(-54.19)"/>
                </g>
                <path class="cls-13" d="M502.49,492.44l-1.99-1.44s-.03-.03-.03-.05l-1.19-6.23s.02-.09,.07-.1c.05,0,.09,.02,.1,.07l1.19,6.2,1.96,1.42s.05,.08,.02,.12-.08,.05-.12,.02Z"/>
                <path class="cls-13" d="M502.13,492.93l-2.7-1.95s-.03-.03-.04-.06l-1.12-6.66s.02-.09,.07-.1c.05,0,.09,.02,.1,.07l1.12,6.62,2.68,1.93s.05,.08,.02,.12-.08,.05-.12,.02Z"/>
                <path class="cls-13" d="M510.64,506.8s-.02-.02-.03-.04l-3.29-8.6-2.31-1.67s-.05-.08-.02-.12,.08-.05,.12-.02l2.33,1.68s.02,.02,.03,.04l3.3,8.63s0,.1-.05,.11c-.03,.01-.06,0-.08-.01Z"/>
                <path class="cls-13" d="M501.02,494.35l-5.1-3.68s-.03-.04-.04-.06l-.67-5.39s.03-.09,.08-.1c.05,0,.09,.03,.1,.08l.67,5.35,5.06,3.65s.05,.08,.02,.12-.08,.05-.12,.02Z"/>
                <path class="cls-13" d="M500.67,494.84l-6.85-4.94s-.03-.04-.04-.06l-.43-3.67s.03-.09,.08-.1c.05,0,.09,.03,.1,.08l.42,3.63,6.82,4.92s.05,.08,.02,.12-.08,.05-.12,.02Z"/>
                <path class="cls-13" d="M498.91,487.92l-1.98-1.43s-.05-.08-.02-.12,.08-.05,.12-.02l1.98,1.43s.05,.08,.02,.12-.08,.05-.12,.02Z"/>
                <path class="cls-13" d="M495.91,490.66s0,0,0,0c-.04-.03-.04-.09-.01-.12l1.5-1.89s.09-.04,.12-.01c.04,.03,.04,.09,.01,.12l-1.5,1.89s-.08,.04-.12,.02Z"/>
                <path class="cls-13" d="M496.91,485.89c-.19-.12-.44-.09-.56,.09-.12,.19-.09,.44,.09,.56,.19,.12,.37,.09,.5-.06h.03l.03-.03s.03-.06,.03-.09c.09-.16,.03-.37-.12-.47Zm-.06,.47c-.06,.09-.19,.09-.31,.03-.09-.06-.09-.22-.03-.31,.06-.09,.22-.12,.31-.03,.09,.06,.12,.19,.03,.31Z"/>
                <path class="cls-13" d="M504.76,489.84l-1.98-1.43s-.05-.08-.02-.12,.08-.05,.12-.02l1.98,1.43s.05,.08,.02,.12-.08,.05-.12,.02Z"/>
                <path class="cls-13" d="M502.76,487.82c-.19-.12-.44-.09-.56,.09-.12,.16-.09,.4,.09,.53,.16,.09,.34,.09,.47-.03h.03s.03-.03,.06-.06c.03-.03,.03-.06,.03-.09,.06-.16,0-.34-.12-.44Zm-.06,.44c-.06,.09-.22,.12-.31,.06-.09-.09-.12-.22-.03-.31,.06-.09,.19-.12,.28-.06,.12,.09,.12,.22,.06,.31Z"/>
                <path class="cls-13" d="M508.69,494.73l-1.98-1.43s-.05-.08-.02-.12,.08-.05,.12-.02l1.98,1.43s.05,.08,.02,.12-.08,.05-.12,.02Z"/>
                <path class="cls-13" d="M509.27,494.57c-.16-.09-.37-.09-.5,0l-.06,.06s-.03,.06-.03,.09c-.09,.16-.03,.37,.12,.47,.19,.12,.44,.09,.56-.09,.12-.16,.09-.4-.09-.53Zm-.06,.44c-.06,.09-.19,.12-.31,.06-.09-.09-.09-.22-.03-.31,.06-.09,.22-.12,.31-.06,.09,.06,.12,.22,.03,.31Z"/>
                <path class="cls-13" d="M506.45,502.64l-1.98-1.43s-.05-.08-.02-.12,.08-.05,.12-.02l1.98,1.43s.05,.08,.02,.12-.08,.05-.12,.02Z"/>
                <path class="cls-13" d="M507.03,502.48c-.16-.09-.34-.09-.47,.03h-.03s-.03,.03-.06,.06c0,.03-.03,.03,0,.06h-.03c-.06,.16,0,.34,.12,.47,.19,.12,.44,.09,.56-.09,.12-.16,.09-.4-.09-.53Zm-.06,.44c-.06,.09-.19,.12-.31,.06-.09-.09-.09-.22-.03-.31,.06-.09,.22-.12,.31-.06,.09,.09,.12,.22,.03,.31Z"/>
                <path class="cls-13" d="M503.17,499.55c-.16-.09-.37-.09-.5,.03-.03,0-.03,.03-.06,.06,0,.03-.03,.06-.03,.09-.06,.16,0,.37,.12,.47,.19,.12,.44,.09,.56-.09s.09-.44-.09-.56Zm-.06,.47c-.06,.09-.19,.12-.28,.03-.12-.06-.12-.19-.06-.31,.06-.09,.22-.09,.31-.03,.09,.06,.12,.22,.03,.31Z"/>
                <path class="cls-13" d="M506.42,505.48l-3.17-2.29s-.05-.08-.02-.12,.08-.05,.12-.02l3.17,2.29s.05,.08,.02,.12-.08,.05-.12,.02Z"/>
                <path class="cls-13" d="M507,505.25c-.16-.12-.4-.09-.56,.03l-.06,.06s-.03,.06-.03,.09c-.09,.19-.03,.4,.12,.53,.22,.16,.47,.09,.62-.09,.12-.19,.09-.47-.09-.62Zm-.06,.53c-.06,.09-.25,.12-.34,.03-.12-.06-.16-.22-.09-.31l.03-.03c.09-.12,.25-.16,.37-.06,.09,.09,.12,.25,.03,.37Z"/>
                <path class="cls-13" d="M497.85,513.44s-.03-.03-.06-.06-.06-.03-.09-.03c-.19-.09-.4-.03-.5,.12-.16,.22-.09,.47,.09,.62,.19,.12,.47,.09,.59-.09,.12-.19,.09-.4-.03-.56Zm-.09,.44c-.09,.12-.25,.16-.37,.06-.12-.06-.12-.25-.06-.34,.09-.12,.25-.16,.37-.06,.12,.06,.16,.25,.06,.34Z"/>
                <path class="cls-13" d="M497.16,511.51s-.03-.06-.06-.09-.06-.03-.09-.03c-.19-.09-.4-.03-.5,.12-.16,.22-.09,.5,.09,.62,.19,.16,.47,.09,.59-.09,.12-.16,.09-.37-.03-.53Zm-.09,.44c-.09,.09-.25,.12-.37,.03-.12-.06-.12-.22-.06-.34,.09-.12,.25-.16,.37-.06,.12,.09,.16,.25,.06,.37Z"/>
                <path class="cls-13" d="M495.73,509.36s0-.03-.03-.06-.06-.03-.12-.03c-.19-.09-.4-.03-.5,.12-.16,.19-.09,.47,.09,.62,.19,.12,.47,.09,.62-.09,.12-.19,.09-.4-.06-.56Zm-.09,.44c-.09,.12-.25,.16-.37,.06-.09-.09-.12-.25-.03-.37,.06-.09,.22-.12,.34-.03,.12,.06,.16,.25,.06,.34Z"/>
                <path class="cls-13" d="M493.21,509.39v-.03c-.06-.03-.12-.06-.16-.03-.19-.06-.34,0-.47,.16-.16,.19-.09,.47,.09,.59,.19,.16,.47,.09,.62-.09,.12-.19,.09-.44-.09-.59Zm-.06,.5c-.09,.09-.25,.12-.37,.06-.09-.09-.12-.25-.03-.37,.06-.12,.25-.16,.34-.06,.12,.09,.16,.25,.06,.37Z"/>
                <path class="cls-13" d="M511.26,502.39c-.03-.06-.06-.09-.12-.12-.19-.12-.44-.09-.56,.09-.12,.16-.09,.4,.09,.53,.19,.12,.44,.09,.56-.06,.06-.06,.06-.16,.06-.25v-.03c0-.06,0-.09-.03-.16Zm-.19,.31c-.06,.09-.19,.12-.31,.06-.09-.06-.09-.22-.03-.31,.06-.09,.22-.12,.31-.06,.03,.03,.06,.09,.06,.12s.03,.03,.03,.06-.03,.09-.06,.12Z"/>
                <path class="cls-13" d="M497.94,488.03c-.16-.12-.4-.09-.56,.09-.12,.16-.06,.37,.06,.5h.03v.03s.03,.03,.06,.03c.19,.12,.37,.03,.5-.09,.12-.19,.09-.44-.09-.56Zm-.06,.44c-.06,.09-.19,.12-.28,.06-.12-.06-.12-.22-.06-.31,.06-.09,.22-.12,.31-.06,.09,.09,.12,.22,.03,.31Z"/>
                <path class="cls-13" d="M494.79,493.27l-.06-.06c-.19-.12-.44-.09-.56,.09-.12,.19-.09,.44,.09,.56,.16,.12,.4,.09,.53-.09,.09-.09,.09-.22,.09-.31-.03-.06-.06-.12-.09-.19Zm-.44,.44c-.09-.06-.12-.19-.06-.31,.09-.09,.22-.09,.31-.03,.09,.06,.12,.22,.06,.31-.06,.09-.22,.12-.31,.03Z"/>
                <path class="cls-13" d="M494.35,495.67s-.02-.02-.03-.03c-.02-.04,0-.1,.04-.12l3.86-1.86s.06-.01,.09,0l2.16,1.56s.05,.08,.02,.12-.08,.05-.12,.02l-2.12-1.53-3.82,1.84s-.06,.01-.09,0Z"/>
                <path class="cls-13" d="M494.76,493.45s-.02-.02-.03-.03c-.02-.04,0-.1,.04-.12l2.35-1.18s.1,0,.12,.04c.02,.04,0,.1-.04,.12l-2.35,1.18s-.07,.01-.09,0Z"/>
                <path class="cls-13" d="M492.12,490.62s-.03-.06-.06-.09c-.19-.12-.44-.09-.56,.09-.12,.19-.09,.44,.09,.56,.19,.12,.4,.09,.56-.09,.06-.09,.09-.22,.03-.31,0-.06-.03-.09-.06-.16Zm-.12,.37c-.06,.09-.22,.09-.31,.03-.09-.06-.12-.22-.03-.31,.06-.09,.19-.12,.28-.03,.12,.06,.12,.19,.06,.31Z"/>
                <path class="cls-13" d="M492.09,490.78s-.02-.02-.03-.03c-.02-.04,0-.1,.04-.12l1.73-.88s.1,0,.12,.04c.02,.04,0,.1-.04,.12l-1.73,.88s-.07,.01-.09,0Z"/>
                <path class="cls-13" d="M503,492.27s-.05-.08-.02-.12l2.41-3.34,.77-2.97s.06-.07,.11-.06c.05,.01,.08,.06,.06,.11l-.78,2.98s0,.02-.01,.03l-2.42,3.36s-.08,.05-.12,.02Z"/>
                <path class="cls-13" d="M504.47,493.33s-.05-.08-.02-.12l2.6-3.61s.03-.03,.05-.03l3.28-.94s.1,.01,.11,.06c.01,.05-.01,.1-.06,.11l-3.25,.93-2.58,3.58s-.08,.05-.12,.02Z"/>
                <path class="cls-13" d="M505.93,494.39s-.05-.08-.02-.12l1.62-2.25s.03-.03,.04-.03l4.15-1.33s.1,.01,.11,.06c.01,.05-.01,.1-.06,.11l-4.12,1.32-1.61,2.23s-.08,.05-.12,.02Z"/>
                <path class="cls-13" d="M508.05,497.2l-2.34-1.69s-.05-.08-.02-.12,.08-.05,.12-.02l2.3,1.66,5.77-2.11s.1,0,.11,.05c.02,.05,0,.1-.05,.11l-5.81,2.13s-.06,0-.08-.01Z"/>
                <path class="cls-13" d="M510.69,499.85l-5.33-3.84s-.05-.08-.02-.12,.08-.05,.12-.02l5.29,3.82,4.2-1.42s.1,0,.11,.05c.02,.05,0,.1-.05,.11l-4.24,1.44s-.06,0-.08-.01Z"/>
                <path class="cls-13" d="M511.14,502.56s-.03-.03-.03-.04c-.01-.05,.01-.1,.06-.11l3.65-1.14s.1,.01,.11,.06c.01,.05-.01,.1-.06,.11l-3.65,1.14s-.06,0-.08-.01Z"/>
                <path class="cls-13" d="M511.58,504.63s-.03-.06-.06-.09c-.19-.12-.44-.06-.56,.09-.12,.19-.09,.44,.09,.56,.19,.12,.44,.09,.56-.09,.06-.09,.06-.19,.06-.28v-.03c-.03-.06-.03-.09-.09-.16Zm-.12,.37c-.06,.09-.22,.12-.31,.03-.09-.06-.12-.19-.03-.28,.06-.12,.19-.12,.28-.06,.12,.06,.12,.22,.06,.31Z"/>
                <path class="cls-13" d="M511.54,504.79s-.03-.03-.03-.04c-.01-.05,.01-.1,.06-.11l2.19-.69s.1,.01,.11,.06c.01,.05-.01,.1-.06,.11l-2.19,.69s-.06,0-.08-.01Z"/>
                <path class="cls-13" d="M501.53,505.58s-.05-.08-.02-.12l3.97-6.41-1.52-1.1s-.05-.08-.02-.12,.08-.05,.12-.02l1.59,1.15s.05,.08,.02,.12l-4.01,6.48s-.08,.05-.12,.03c0,0,0,0,0,0Z"/>
                <path class="cls-13" d="M495.97,498.96s-.02-.02-.03-.03c-.02-.04,0-.1,.04-.12l3.24-1.66s.06-.01,.09,0l3.36,2.43s.05,.08,.02,.12-.08,.05-.12,.02l-3.32-2.39-3.19,1.63s-.07,.01-.09,0Z"/>
                <path class="cls-13" d="M493.08,509.41s-.05-.08-.02-.12l3.12-4.81s.04-.04,.06-.04l1.12-.13,2.74-4.3s.08-.05,.12-.03c.04,.03,.05,.08,.03,.12l-2.77,4.33s-.04,.04-.06,.04l-1.12,.13-3.1,4.77s-.08,.05-.12,.03c0,0,0,0,0,0Z"/>
                <path class="cls-13" d="M495.58,509.44s-.05-.08-.02-.12l5.58-8.74s.08-.05,.12-.03c.04,.02,.05,.08,.03,.12l-5.58,8.74s-.08,.05-.12,.03c0,0,0,0,0,0Z"/>
                <path class="cls-13" d="M497,511.57s-.05-.08-.02-.12l2.46-3.71-.9-1.13s-.03-.07,0-.1l3.41-5.34s.08-.05,.12-.03c.04,.02,.05,.08,.03,.12l-3.37,5.28,.9,1.13s.03,.07,0,.1l-2.5,3.76s-.08,.05-.12,.02h0Z"/>
                <path class="cls-13" d="M497.69,513.53s-.05-.08-.02-.12l3.5-5.67-1.17-1.38s-.03-.07,0-.1l2.87-4.5s.08-.05,.12-.03c.04,.02,.05,.08,.03,.12l-2.84,4.45,1.17,1.38s.03,.07,0,.1l-3.53,5.72s-.08,.05-.12,.03c0,0,0,0,0,0Z"/>
              </g>
            </g>
            <g>
              <path class="cls-5" d="M609.79,457.25c-8.1-22.16-26.55-45.35-45.62-58.82l-19.52,17.3c20.38,11.94,38.18,33.26,44.65,56.28l20.48-14.77Z"/>
              <path class="cls-5" d="M391.93,535.97c7.37,24.14,24.3,46.57,44.17,60.19l20.77-14.91c-31.33-18.96-38.62-40.75-44.3-58.67l-20.64,13.39Z"/>
            </g>
          </g>
          <g>
            <path class="cls-9" d="M480.65,576.16c-39.12-10.24-65.1-48.67-58.93-89.54,5.76-38.2,37.73-66.07,74.87-68.12l1-6.64c-40.76,1.6-76.07,31.98-82.38,73.77-6.71,44.46,21.75,86.25,64.45,97.06l-1.64,10.85,17.43-11.39-13.29-16.03-1.51,10.03Z"/>
            <path class="cls-9" d="M521.87,421.32c39.12,10.24,65.1,48.67,58.93,89.54-5.76,38.2-37.73,66.07-74.87,68.12l-1,6.64c40.76-1.6,76.07-31.98,82.38-73.77,6.71-44.46-21.75-86.25-64.45-97.06l1.64-10.85-17.43,11.39,13.29,16.03,1.51-10.03Z"/>
          </g>
        </g>
      </g>
    </g>
  </g>
</svg>